<svg width="18" height="20" viewBox="0 0 18 20" fill="none" xmlns="http://www.w3.org/2000/svg">
<path d="M10.667 5.83333V0.383333C11.4379 0.674446 12.1381 1.12609 12.7212 1.70833L15.6245 4.61333C16.2074 5.19573 16.6594 5.89575 16.9503 6.66667H11.5003C11.2793 6.66667 11.0674 6.57887 10.9111 6.42259C10.7548 6.26631 10.667 6.05435 10.667 5.83333ZM17.3337 8.7375V15.8333C17.3323 16.938 16.8929 17.997 16.1118 18.7782C15.3307 19.5593 14.2717 19.9987 13.167 20H4.83366C3.729 19.9987 2.66996 19.5593 1.88884 18.7782C1.10773 17.997 0.668315 16.938 0.666992 15.8333V4.16667C0.668315 3.062 1.10773 2.00296 1.88884 1.22185C2.66996 0.440735 3.729 0.00132321 4.83366 0L8.59616 0C8.73199 0 8.86616 0.0108333 9.00033 0.02V5.83333C9.00033 6.49637 9.26372 7.13226 9.73256 7.6011C10.2014 8.06994 10.8373 8.33333 11.5003 8.33333H17.3137C17.3228 8.4675 17.3337 8.60167 17.3337 8.7375ZM10.667 15.8333C10.667 15.6123 10.5792 15.4004 10.4229 15.2441C10.2666 15.0878 10.0547 15 9.83366 15H5.66699C5.44598 15 5.23402 15.0878 5.07774 15.2441C4.92146 15.4004 4.83366 15.6123 4.83366 15.8333C4.83366 16.0543 4.92146 16.2663 5.07774 16.4226C5.23402 16.5789 5.44598 16.6667 5.66699 16.6667H9.83366C10.0547 16.6667 10.2666 16.5789 10.4229 16.4226C10.5792 16.2663 10.667 16.0543 10.667 15.8333ZM13.167 12.5C13.167 12.279 13.0792 12.067 12.9229 11.9107C12.7666 11.7545 12.5547 11.6667 12.3337 11.6667H5.66699C5.44598 11.6667 5.23402 11.7545 5.07774 11.9107C4.92146 12.067 4.83366 12.279 4.83366 12.5C4.83366 12.721 4.92146 12.933 5.07774 13.0893C5.23402 13.2455 5.44598 13.3333 5.66699 13.3333H12.3337C12.5547 13.3333 12.7666 13.2455 12.9229 13.0893C13.0792 12.933 13.167 12.721 13.167 12.5Z" fill="white"/>
</svg>
