<svg width="20" height="20" viewBox="0 0 20 20" fill="none" xmlns="http://www.w3.org/2000/svg">
<path d="M17.5 0H2.5C1.12167 0 0 1.12167 0 2.5V20H13.6783L20 13.6783V2.5C20 1.12167 18.8783 0 17.5 0ZM1.66667 2.5C1.66667 2.04 2.04083 1.66667 2.5 1.66667H17.5C17.9592 1.66667 18.3333 2.04 18.3333 2.5V12.5H12.5V18.3333H1.66667V2.5ZM17.155 14.1667L14.1667 17.155V14.1667H17.155ZM3.33333 5.41667C3.33333 4.72667 3.89333 4.16667 4.58333 4.16667C5.27333 4.16667 5.83333 4.72667 5.83333 5.41667C5.83333 6.10667 5.27333 6.66667 4.58333 6.66667C3.89333 6.66667 3.33333 6.10667 3.33333 5.41667ZM5.83333 10C5.83333 10.69 5.27333 11.25 4.58333 11.25C3.89333 11.25 3.33333 10.69 3.33333 10C3.33333 9.31 3.89333 8.75 4.58333 8.75C5.27333 8.75 5.83333 9.31 5.83333 10ZM5.83333 14.5833C5.83333 15.2733 5.27333 15.8333 4.58333 15.8333C3.89333 15.8333 3.33333 15.2733 3.33333 14.5833C3.33333 13.8933 3.89333 13.3333 4.58333 13.3333C5.27333 13.3333 5.83333 13.8933 5.83333 14.5833Z" fill="white"/>
</svg>
