<svg width="20" height="20" viewBox="0 0 20 20" fill="none" xmlns="http://www.w3.org/2000/svg">
<g clip-path="url(#clip0_1410_180)">
<path d="M11.667 5.83333V0.383333C12.4253 0.675 13.1253 1.11667 13.717 1.70833L16.617 4.61667C17.2087 5.20833 17.6503 5.90833 17.942 6.66667H12.492C12.0337 6.66667 11.6587 6.29167 11.6587 5.83333H11.667ZM18.3337 8.74167V15.8333C18.3337 18.1333 16.467 20 14.167 20H5.83366C3.53366 20 1.66699 18.1333 1.66699 15.8333V4.16667C1.66699 1.86667 3.53366 0 5.83366 0H9.59199C9.72533 0 9.85866 0.00833333 10.0003 0.0166667V5.83333C10.0003 7.20833 11.1253 8.33333 12.5003 8.33333H18.317C18.3253 8.46667 18.3337 8.6 18.3337 8.74167ZM11.0837 14.1667L12.7253 12.2C13.017 11.85 12.9753 11.325 12.617 11.025C12.2587 10.7333 11.742 10.775 11.442 11.1333L10.0003 12.8667L8.55866 11.1333C8.26699 10.7833 7.74199 10.7333 7.38366 11.025C7.03366 11.3167 6.98366 11.8417 7.27533 12.2L8.91699 14.1667L7.27533 16.1333C6.98366 16.4833 7.02533 17.0083 7.38366 17.3083C7.54199 17.4417 7.72533 17.5 7.91699 17.5C8.15866 17.5 8.39199 17.4 8.55866 17.2L10.0003 15.4667L11.442 17.2C11.6087 17.4 11.842 17.5 12.0837 17.5C12.2753 17.5 12.4587 17.4333 12.617 17.3083C12.967 17.0167 13.017 16.4917 12.7253 16.1333L11.0837 14.1667Z" fill="white"/>
</g>
<defs>
<clipPath id="clip0_1410_180">
<rect width="20" height="20" fill="white"/>
</clipPath>
</defs>
</svg>
