<svg width="20" height="24" viewBox="0 0 20 24" fill="none" xmlns="http://www.w3.org/2000/svg">
<path d="M4.92143 3.65017L5.32108 4.56684L4.92143 3.65017ZM5.04865 12.8702L5.42286 11.9429V11.9429L5.04865 12.8702ZM19.3911 19.4203C19.8994 19.2043 20.1364 18.6172 19.9203 18.1089L16.4002 9.82584C16.1842 9.31755 15.597 9.08061 15.0888 9.29662C14.5805 9.51263 14.3435 10.0998 14.5595 10.6081L17.6885 17.9708L10.3258 21.0998C9.81755 21.3158 9.58061 21.903 9.79662 22.4112C10.0126 22.9195 10.5998 23.1565 11.1081 22.9405L19.3911 19.4203ZM10.6003 0.0833338L4.52178 2.73351L5.32108 4.56684L11.3997 1.91667L10.6003 0.0833338ZM4.67444 13.7976L18.6258 19.4273L19.3742 17.5727L5.42286 11.9429L4.67444 13.7976ZM4.52178 2.73351C-0.353611 4.85911 -0.257734 11.8073 4.67444 13.7976L5.42286 11.9429C2.13474 10.616 2.07083 5.9839 5.32108 4.56684L4.52178 2.73351Z" fill="black"/>
</svg>
