<svg width="40" height="40" viewBox="0 0 40 40" fill="none" xmlns="http://www.w3.org/2000/svg">
<g clip-path="url(#clip0_1418_1025)">
<path d="M6.77992 30H32.8733C33.6763 30 34.4676 29.8066 35.18 29.4361C35.8925 29.0657 36.5053 28.529 36.9665 27.8716C37.4277 27.2142 37.7238 26.4554 37.8297 25.6593C37.9356 24.8633 37.8482 24.0535 37.5749 23.2983L32.8216 10.1567C32.0098 7.23618 30.2637 4.66198 27.8504 2.82778C25.4371 0.993583 22.4895 0.000353464 19.4582 1.69552e-09C16.3028 -4.93205e-05 13.2417 1.07598 10.7803 3.05043C8.31888 5.02488 6.6044 7.77968 5.91992 10.86L2.00325 23.5267C1.77265 24.2745 1.72081 25.066 1.8519 25.8375C1.98299 26.6091 2.29335 27.339 2.758 27.9687C3.22266 28.5985 3.82864 29.1103 4.52719 29.4631C5.22573 29.8159 5.99734 29.9998 6.77992 30Z" fill="black"/>
<path d="M11.8335 33.3333C12.216 35.2171 13.238 36.9108 14.7264 38.1273C16.2148 39.3438 18.0779 40.0083 20.0002 40.0083C21.9224 40.0083 23.7856 39.3438 25.2739 38.1273C26.7623 36.9108 27.7843 35.2171 28.1668 33.3333H11.8335Z" fill="black"/>
</g>
<defs>
<clipPath id="clip0_1418_1025">
<rect width="40" height="40" fill="white"/>
</clipPath>
</defs>
</svg>
