<svg width="107" height="123" viewBox="0 0 107 123" fill="none" xmlns="http://www.w3.org/2000/svg">
<path d="M33.3935 48.2697C33.3935 51.0311 35.6321 53.2697 38.3935 53.2697H83.8032C86.5646 53.2697 88.8032 51.0311 88.8032 48.2697V28.2809C88.8032 25.5441 86.603 23.3159 83.8665 23.2813L38.4568 22.7065C35.6708 22.6712 33.3935 24.9199 33.3935 27.7061V48.2697Z" fill="#F7DF1E"/>
<path fill-rule="evenodd" clip-rule="evenodd" d="M104 3.00346H18.1968V92.7812H104V3.00346ZM88.8032 48.2697C88.8032 51.0311 86.5646 53.2697 83.8032 53.2697H38.3935C35.6321 53.2697 33.3935 51.0311 33.3935 48.2697V27.7061C33.3935 24.9199 35.6708 22.6712 38.4568 22.7065L83.8665 23.2813C86.603 23.3159 88.8032 25.5441 88.8032 28.2809V48.2697Z" fill="#FFB8B8"/>
<path d="M3 14.4595V105.172C3 92.7812 18.1968 92.7812 18.1968 92.7812V3.00346C3 2.76969 3 14.4595 3 14.4595Z" fill="#E62727"/>
<path d="M104 92.7812H18.1968C18.1968 92.7812 3 92.7812 3 105.172C3 118.061 16.268 119.928 18.0091 120.117C18.1363 120.131 18.2608 120.135 18.3888 120.135H93.3247C97.5639 120.135 99.8986 115.02 98.7115 110.95C98.145 109.008 97.9213 107.053 97.9213 104.939C97.9213 99.5518 100.025 96.9896 104 92.7812Z" fill="#F1F1F1"/>
<path d="M3 105.172C3 69.7468 3 14.4595 3 14.4595M3 105.172C3 92.7812 18.1968 92.7812 18.1968 92.7812M3 105.172C3 118.061 16.268 119.928 18.0091 120.117C18.1363 120.131 18.2608 120.135 18.3888 120.135H93.3247C97.5639 120.135 99.8986 115.02 98.7115 110.95C98.145 109.008 97.9213 107.053 97.9213 104.939C97.9213 99.5518 100.025 96.9896 104 92.7812M3 105.172V14.4595M3 14.4595C3 14.4595 3 2.76969 18.1968 3.00346M18.1968 3.00346C51.705 3.00346 104 3.00346 104 3.00346M18.1968 3.00346C18.1968 38.0639 18.1968 92.7812 18.1968 92.7812M18.1968 3.00346H104M18.1968 3.00346V92.7812M104 3.00346V92.7812M104 92.7812H18.1968M38.4568 22.7065L83.8665 23.2813C86.603 23.3159 88.8032 25.5441 88.8032 28.2809V48.2697C88.8032 51.0311 86.5646 53.2697 83.8032 53.2697H38.3935C35.6321 53.2697 33.3935 51.0311 33.3935 48.2697V27.7061C33.3935 24.9199 35.6708 22.6712 38.4568 22.7065Z" stroke="black" stroke-width="5" stroke-linecap="round"/>
<rect x="27.7825" y="100.259" width="30.3935" height="3.27315" rx="1.63657" fill="#D9D9D9"/>
<rect x="15.1575" y="109.144" width="22.4444" height="3.27315" rx="1.63657" fill="#D9D9D9"/>
<rect x="41.3425" y="109.144" width="37.875" height="3.27315" rx="1.63657" fill="#D9D9D9"/>
<rect x="61.9166" y="100.259" width="29.9259" height="3.27315" rx="1.63657" fill="#D9D9D9"/>
<rect width="40" height="40" transform="translate(40 8)" fill="#F7DF1E"/>
<path d="M66.8699 39.25C67.2106 39.9409 67.7393 40.5218 68.3953 40.9257C69.0513 41.3296 69.8079 41.5402 70.5783 41.5333C72.135 41.5333 73.13 40.755 73.13 39.6783C73.13 38.39 72.1083 37.9333 70.3933 37.1783L69.4533 36.775C66.7416 35.62 64.94 34.1716 64.94 31.1083C64.9449 30.4114 65.0948 29.7232 65.3801 29.0874C65.6654 28.4516 66.0798 27.8821 66.5971 27.4152C67.1144 26.9482 67.7232 26.594 68.3847 26.375C69.0463 26.1561 69.7462 26.0771 70.4399 26.1433C71.5303 26.0647 72.6195 26.3097 73.5712 26.8475C74.5229 27.3853 75.2948 28.1921 75.79 29.1666L72.8633 31.045C72.6712 30.5629 72.337 30.1507 71.905 29.8631C71.4731 29.5755 70.9638 29.4262 70.445 29.435C70.2189 29.4123 69.9907 29.4369 69.7747 29.5072C69.5587 29.5776 69.3597 29.6921 69.1904 29.8435C69.0211 29.995 68.8851 30.18 68.7912 30.3869C68.6973 30.5937 68.6475 30.8178 68.645 31.045C68.645 32.1733 69.3433 32.63 70.9566 33.3283L71.8966 33.73C75.09 35.1 76.8966 36.4966 76.8966 39.635C76.8966 43.02 74.2383 44.8733 70.6683 44.8733C69.2774 44.962 67.8906 44.6463 66.6751 43.9643C65.4596 43.2824 64.4674 42.2633 63.8183 41.03L66.8699 39.25ZM53.5916 39.5833C54.1816 40.63 54.72 41.5166 56.01 41.5166C57.245 41.5166 58.0249 41.0333 58.0249 39.1533V26.3666H61.7833V39.2C61.8719 39.9609 61.7881 40.732 61.5382 41.4562C61.2882 42.1803 60.8785 42.839 60.3394 43.3832C59.8002 43.9275 59.1455 44.3434 58.4238 44.6002C57.702 44.857 56.9317 44.948 56.1699 44.8666C54.9933 44.9308 53.8249 44.6371 52.8184 44.0243C51.8119 43.4114 51.0147 42.5081 50.5316 41.4333L53.5916 39.5833Z" fill="black"/>
</svg>
