<svg width="40" height="40" viewBox="0 0 40 40" fill="none" xmlns="http://www.w3.org/2000/svg">
<g clip-path="url(#clip0_943_218)">
<path d="M6.667 10C6.00992 10.0017 5.35902 9.87314 4.75196 9.62167C4.14489 9.37021 3.59372 9.00086 3.13033 8.535L0.556996 6.24501C0.226802 5.95061 0.0270772 5.53711 0.0017598 5.09546C-0.0235576 4.65382 0.127606 4.2202 0.421996 3.89001C0.716387 3.55981 1.12989 3.36009 1.57154 3.33477C2.01319 3.30945 2.4468 3.46061 2.777 3.75501L5.41866 6.11167C5.56989 6.2815 5.75427 6.41858 5.96046 6.51449C6.16665 6.61039 6.39028 6.66309 6.61759 6.66933C6.84491 6.67558 7.07109 6.63524 7.28224 6.5508C7.49338 6.46636 7.68501 6.33961 7.84533 6.17834L13.852 0.460005C14.175 0.172455 14.5971 0.0217032 15.0292 0.0395899C15.4612 0.0574766 15.8694 0.242601 16.1676 0.555863C16.4657 0.869125 16.6304 1.286 16.6268 1.71842C16.6233 2.15085 16.4519 2.56498 16.1487 2.87334L10.167 8.56334C9.70662 9.02104 9.16054 9.3835 8.55998 9.63002C7.95943 9.87653 7.31617 10.0023 6.667 10ZM40.0003 6.66667C40.0003 6.22464 39.8247 5.80072 39.5122 5.48816C39.1996 5.1756 38.7757 5.00001 38.3337 5.00001H21.667C21.225 5.00001 20.801 5.1756 20.4885 5.48816C20.1759 5.80072 20.0003 6.22464 20.0003 6.66667C20.0003 7.1087 20.1759 7.53262 20.4885 7.84518C20.801 8.15774 21.225 8.33334 21.667 8.33334H38.3337C38.7757 8.33334 39.1996 8.15774 39.5122 7.84518C39.8247 7.53262 40.0003 7.1087 40.0003 6.66667ZM10.167 21.8967L16.1487 16.2067C16.3156 16.058 16.451 15.8773 16.5467 15.6753C16.6423 15.4733 16.6964 15.2541 16.7057 15.0308C16.7149 14.8074 16.6791 14.5845 16.6005 14.3753C16.5218 14.1661 16.4019 13.9748 16.2478 13.8129C16.0937 13.651 15.9086 13.5217 15.7035 13.4328C15.4984 13.3438 15.2775 13.2971 15.054 13.2952C14.8305 13.2934 14.6089 13.3366 14.4024 13.4221C14.1959 13.5077 14.0087 13.6339 13.852 13.7933L7.852 19.5117C7.53472 19.8151 7.11265 19.9844 6.67366 19.9844C6.23468 19.9844 5.81261 19.8151 5.49533 19.5117L2.84533 16.87C2.53099 16.5664 2.10999 16.3984 1.67299 16.4022C1.236 16.406 0.817979 16.5813 0.508965 16.8903C0.199952 17.1993 0.0246702 17.6173 0.0208729 18.0543C0.0170755 18.4913 0.185066 18.9123 0.488663 19.2267L3.13033 21.8683C4.06312 22.8013 5.32686 23.3279 6.64616 23.3332C7.96546 23.3385 9.2334 22.8221 10.1737 21.8967H10.167ZM40.0003 20C40.0003 19.558 39.8247 19.1341 39.5122 18.8215C39.1996 18.5089 38.7757 18.3333 38.3337 18.3333H21.667C21.225 18.3333 20.801 18.5089 20.4885 18.8215C20.1759 19.1341 20.0003 19.558 20.0003 20C20.0003 20.442 20.1759 20.866 20.4885 21.1785C20.801 21.4911 21.225 21.6667 21.667 21.6667H38.3337C38.7757 21.6667 39.1996 21.4911 39.5122 21.1785C39.8247 20.866 40.0003 20.442 40.0003 20ZM10.167 35.23L16.142 29.54C16.309 29.3914 16.4443 29.2107 16.54 29.0087C16.6357 28.8067 16.6898 28.5875 16.699 28.3641C16.7082 28.1408 16.6725 27.9179 16.5938 27.7086C16.5151 27.4994 16.3952 27.3081 16.2411 27.1462C16.087 26.9843 15.9019 26.855 15.6968 26.7661C15.4917 26.6772 15.2709 26.6304 15.0474 26.6286C14.8238 26.6267 14.6022 26.6699 14.3957 26.7555C14.1892 26.841 14.002 26.9673 13.8453 27.1267L7.84533 32.845C7.68501 33.0063 7.49338 33.133 7.28224 33.2175C7.07109 33.3019 6.84491 33.3422 6.61759 33.336C6.39028 33.3298 6.16665 33.2771 5.96046 33.1812C5.75427 33.0853 5.56989 32.9482 5.41866 32.7783L2.777 30.4217C2.4468 30.1273 2.01319 29.9761 1.57154 30.0014C1.12989 30.0268 0.716387 30.2265 0.421996 30.5567C0.127606 30.8869 -0.0235576 31.3205 0.0017598 31.7621C0.0270772 32.2038 0.226802 32.6173 0.556996 32.9117L3.13033 35.2017C4.06312 36.1347 5.32686 36.6612 6.64616 36.6665C7.96546 36.6718 9.2334 36.1555 10.1737 35.23H10.167ZM40.0003 33.3333C40.0003 32.8913 39.8247 32.4674 39.5122 32.1548C39.1996 31.8423 38.7757 31.6667 38.3337 31.6667H21.667C21.225 31.6667 20.801 31.8423 20.4885 32.1548C20.1759 32.4674 20.0003 32.8913 20.0003 33.3333C20.0003 33.7754 20.1759 34.1993 20.4885 34.5119C20.801 34.8244 21.225 35 21.667 35H38.3337C38.7757 35 39.1996 34.8244 39.5122 34.5119C39.8247 34.1993 40.0003 33.7754 40.0003 33.3333Z" fill="white"/>
</g>
<defs>
<clipPath id="clip0_943_218">
<rect width="40" height="40" fill="white"/>
</clipPath>
</defs>
</svg>
