<svg width="84" height="84" viewBox="0 0 84 84" fill="none" xmlns="http://www.w3.org/2000/svg">
<path d="M3.48633 69.7195V55.7756C3.48633 53.8002 4.169 52.1444 5.53434 50.8081C6.89968 49.4718 8.54099 48.8036 10.4583 48.8036H21.8748C23.0368 48.8036 24.1407 49.0942 25.1865 49.6751C26.2323 50.2561 27.0748 51.0405 27.7139 52.0282C29.3987 54.2941 31.4758 56.0661 33.945 57.3443C36.4143 58.6225 39.0433 59.2616 41.832 59.2616C44.6789 59.2616 47.337 58.6225 49.8062 57.3443C52.2754 56.0661 54.3235 54.2941 55.9502 52.0282C56.7055 51.0405 57.5916 50.2561 58.6083 49.6751C59.625 49.0942 60.6854 48.8036 61.7892 48.8036H73.2058C75.1812 48.8036 76.837 49.4718 78.1733 50.8081C79.5096 52.1444 80.1778 53.8002 80.1778 55.7756V69.7195H55.7759V61.7889C53.7425 63.2414 51.5492 64.3453 49.1962 65.1006C46.8431 65.8559 44.3884 66.2335 41.832 66.2335C39.3338 66.2335 36.8936 65.8414 34.5115 65.057C32.1294 64.2727 29.9216 63.1542 27.8881 61.7018V69.7195H3.48633ZM41.832 55.7756C39.6243 55.7756 37.5327 55.2672 35.5573 54.2505C33.5819 53.2337 31.9261 51.8248 30.5898 50.0237C29.6021 48.5713 28.3675 47.4238 26.8859 46.5813C25.4044 45.7389 23.7921 45.3177 22.0491 45.3177C23.3273 43.168 26.029 41.4686 30.154 40.2194C34.2791 38.9703 38.1718 38.3457 41.832 38.3457C45.4923 38.3457 49.385 38.9703 53.5101 40.2194C57.6351 41.4686 60.3368 43.168 61.615 45.3177C59.9301 45.3177 58.3323 45.7389 56.8217 46.5813C55.3111 47.4238 54.062 48.5713 53.0743 50.0237C51.7961 51.8829 50.1693 53.3064 48.194 54.2941C46.2186 55.2818 44.0979 55.7756 41.832 55.7756ZM13.9443 45.3177C11.0393 45.3177 8.57004 44.3009 6.53656 42.2674C4.50307 40.234 3.48633 37.7647 3.48633 34.8598C3.48633 31.8967 4.50307 29.4129 6.53656 27.4085C8.57004 25.404 11.0393 24.4018 13.9443 24.4018C16.9073 24.4018 19.3911 25.404 21.3955 27.4085C23.4 29.4129 24.4022 31.8967 24.4022 34.8598C24.4022 37.7647 23.4 40.234 21.3955 42.2674C19.3911 44.3009 16.9073 45.3177 13.9443 45.3177ZM69.7198 45.3177C66.8149 45.3177 64.3456 44.3009 62.3121 42.2674C60.2787 40.234 59.2619 37.7647 59.2619 34.8598C59.2619 31.8967 60.2787 29.4129 62.3121 27.4085C64.3456 25.404 66.8149 24.4018 69.7198 24.4018C72.6829 24.4018 75.1667 25.404 77.1711 27.4085C79.1755 29.4129 80.1778 31.8967 80.1778 34.8598C80.1778 37.7647 79.1755 40.234 77.1711 42.2674C75.1667 44.3009 72.6829 45.3177 69.7198 45.3177ZM41.832 34.8598C38.9271 34.8598 36.4578 33.843 34.4244 31.8095C32.3909 29.776 31.3741 27.3068 31.3741 24.4018C31.3741 21.4387 32.3909 18.955 34.4244 16.9506C36.4578 14.9461 38.9271 13.9439 41.832 13.9439C44.7951 13.9439 47.2789 14.9461 49.2833 16.9506C51.2878 18.955 52.29 21.4387 52.29 24.4018C52.29 27.3068 51.2878 29.776 49.2833 31.8095C47.2789 33.843 44.7951 34.8598 41.832 34.8598Z" fill="white"/>
</svg>
