<svg width="62" height="62" viewBox="0 0 62 62" fill="none" xmlns="http://www.w3.org/2000/svg">
<g clip-path="url(#clip0_1684_408)">
<path d="M51.6667 59.4166V56.8333C51.6667 53.0487 52.2557 39.7575 59.8171 27.608L61.8243 24.3815L58.2645 25.717C53.9917 27.3187 50.902 29.6308 48.5202 32.2994C50.8736 26.8356 54.0278 21.8188 57.7633 16.2181L60.0418 12.8029L56.2185 14.2987C48.6235 17.2695 43.3199 22.276 39.6077 27.8715C42.5501 20.0724 46.6782 14.0455 50.9743 7.80162C52.6122 5.43528 54.6556 2.3792 56.2779 -0.0568848L52.5011 1.38203C41.6666 5.5102 33.7616 12.8908 28.334 23.8054C23.6582 16.1148 17.5667 10.031 10.5142 6.25678L5.97267 3.82587L8.82983 8.11162C12.3845 13.4462 16.0606 20.6072 19.0831 28.1557C15.4328 24.3866 10.6459 20.7829 5.63683 18.8247L1.81608 17.3289L5.642 23.0536C9.67975 29.0547 13.3765 34.5727 15.6731 41.4314C11.7955 36.2338 6.727 32.8755 4.52858 31.5838L0 28.9049L2.78225 33.3715C9.052 43.4413 10.3359 50.5506 10.3359 58.125V59.4166H0V62H62V59.4166H51.6667ZM49.3753 5.56187C49.197 5.8202 49.0187 6.07595 48.8431 6.33428C42.8007 15.1254 37.0708 23.4928 34.3506 36.859C33.1183 33.1829 31.6122 29.7186 29.8737 26.492C34.3454 16.771 40.7418 9.87345 49.3753 5.56187ZM18.0833 59.4166H12.9167V58.125C12.9167 52.2608 12.2295 45.6655 7.80167 36.9933C12.2579 40.5919 17.7578 46.7118 18.0317 54.9242C18.0937 56.1849 18.0833 58.125 18.0833 59.4166ZM25.8333 59.4166H20.6667C20.6744 58.3936 20.5866 53.6506 20.4677 52.7413C19.5197 39.9254 14.5002 31.6329 8.928 23.3068C14.5623 26.6393 19.4757 31.7233 21.8602 35.8101C24.2678 43.1855 25.8333 50.4705 25.8333 56.3683V59.4166ZM31 58.125V59.4166H28.4167V56.3683C28.4167 43.542 21.3693 24.459 13.9526 11.5035C22.8444 18.1479 29.8582 29.2485 33.2578 42.271C31.1369 50.0391 31 56.624 31 58.125ZM41.3333 59.4166H33.5833V58.125C33.5833 56.6008 33.7357 49.5457 36.1512 41.5167C36.1512 41.5167 36.1563 41.4986 36.1589 41.4883C38.6441 33.2474 43.5163 23.9914 53.1004 18.6206C46.0918 29.561 41.3333 39.6412 41.3333 56.6886V59.4166ZM49.0833 59.4166H43.9167V56.6886C43.9167 51.1189 44.4282 46.363 45.3685 42.0799L45.3814 42.0876C47.5617 37.4893 50.3337 32.9039 55.5882 29.8297C49.5897 41.4831 49.0807 53.245 49.0807 56.8333L49.0833 59.4166Z" fill="#137547"/>
</g>
<defs>
<clipPath id="clip0_1684_408">
<rect width="62" height="62" fill="white"/>
</clipPath>
</defs>
</svg>
