<svg width="490" height="461" viewBox="0 0 490 461" fill="none" xmlns="http://www.w3.org/2000/svg">
<g clip-path="url(#clip0_1685_536)">
<path d="M392.705 356.993C388.715 356.993 384.814 355.81 381.496 353.592C378.179 351.375 375.593 348.223 374.066 344.536C372.539 340.848 372.139 336.79 372.918 332.876C373.696 328.961 375.618 325.365 378.439 322.543C381.261 319.721 384.855 317.799 388.769 317.02C392.682 316.241 396.739 316.641 400.425 318.168C404.112 319.696 407.263 322.282 409.479 325.601C411.696 328.92 412.88 332.821 412.88 336.813C412.873 342.163 410.746 347.293 406.964 351.076C403.182 354.859 398.054 356.987 392.705 356.993Z" fill="#D9D9D9"/>
<path d="M402.016 336.036H393.481V326.334C393.481 326.128 393.399 325.931 393.253 325.785C393.108 325.64 392.911 325.558 392.705 325.558C392.499 325.558 392.302 325.64 392.156 325.785C392.011 325.931 391.929 326.128 391.929 326.334V336.036H383.393C383.188 336.036 382.99 336.118 382.845 336.264C382.699 336.409 382.617 336.607 382.617 336.813C382.617 337.018 382.699 337.216 382.845 337.361C382.99 337.507 383.188 337.589 383.393 337.589H391.929V347.291C391.929 347.497 392.011 347.694 392.156 347.84C392.302 347.985 392.499 348.067 392.705 348.067C392.911 348.067 393.108 347.985 393.253 347.84C393.399 347.694 393.481 347.497 393.481 347.291V337.589H402.016C402.222 337.589 402.419 337.507 402.565 337.361C402.71 337.216 402.792 337.018 402.792 336.813C402.792 336.607 402.71 336.409 402.565 336.264C402.419 336.118 402.222 336.036 402.016 336.036Z" fill="white"/>
<path d="M470.397 451.56L461.527 451.56L457.309 417.333L470.4 417.334L470.397 451.56Z" fill="#FFB8B8"/>
<path d="M455.19 449.024H472.298V459.799H444.418C444.418 458.384 444.697 456.983 445.238 455.675C445.78 454.368 446.573 453.18 447.573 452.18C448.574 451.179 449.761 450.386 451.068 449.844C452.375 449.303 453.776 449.024 455.19 449.024Z" fill="#2F2E41"/>
<path d="M435.091 451.56L426.221 451.56L422.003 417.333L435.095 417.334L435.091 451.56Z" fill="#FFB8B8"/>
<path d="M419.884 449.024H436.992V459.799H409.113C409.113 458.384 409.391 456.983 409.933 455.675C410.474 454.368 411.267 453.18 412.268 452.18C413.268 451.179 414.455 450.386 415.762 449.844C417.069 449.303 418.47 449.024 419.884 449.024Z" fill="#2F2E41"/>
<path d="M477.231 333.233C476.517 332.444 475.985 331.508 475.671 330.491C475.358 329.474 475.271 328.401 475.418 327.347C475.564 326.293 475.939 325.284 476.518 324.391C477.096 323.498 477.863 322.743 478.764 322.178L476.017 305.775L485.575 301.674L489.13 324.893C489.977 326.471 490.217 328.305 489.803 330.048C489.389 331.791 488.35 333.321 486.884 334.349C485.417 335.377 483.624 335.831 481.845 335.626C480.066 335.42 478.424 334.568 477.231 333.233Z" fill="#FFB8B8"/>
<path d="M402.4 325.482C403.234 324.822 403.914 323.987 404.391 323.036C404.868 322.085 405.13 321.04 405.16 319.977C405.19 318.913 404.986 317.856 404.564 316.88C404.141 315.903 403.509 315.032 402.713 314.326L408.132 298.602L399.383 292.978L392.042 315.29C390.945 316.706 390.406 318.476 390.527 320.263C390.647 322.05 391.419 323.731 392.695 324.988C393.972 326.244 395.665 326.988 397.454 327.079C399.242 327.17 401.002 326.602 402.4 325.482Z" fill="#FFB8B8"/>
<path d="M447.832 209.647C458.358 209.647 466.89 201.112 466.89 190.583C466.89 180.055 458.358 171.52 447.832 171.52C437.307 171.52 428.774 180.055 428.774 190.583C428.774 201.112 437.307 209.647 447.832 209.647Z" fill="#FFB8B8"/>
<path d="M401.811 313.718C401.484 313.718 401.158 313.672 400.844 313.581L395.29 311.986C394.402 311.73 393.653 311.133 393.204 310.326C392.755 309.518 392.644 308.567 392.894 307.677L404.357 267.191L420.344 227.936C421.933 224.033 425.254 221.474 429.011 221.257C430.727 221.173 432.43 221.588 433.914 222.453C435.398 223.318 436.6 224.595 437.374 226.129C438.234 227.77 438.706 229.588 438.754 231.441C438.802 233.293 438.425 235.133 437.651 236.817L419.481 276.565L405.035 311.557C404.772 312.196 404.325 312.743 403.751 313.128C403.177 313.512 402.502 313.718 401.811 313.718Z" fill="#3F3D56"/>
<path d="M458.587 206.57L447.998 206.758C446.895 206.78 445.802 206.542 444.808 206.064C443.814 205.585 442.946 204.88 442.274 204.005C441.602 203.13 441.146 202.109 440.941 201.024C440.736 199.94 440.789 198.823 441.095 197.762C441.321 196.996 441.491 196.215 441.604 195.424C441.723 194.562 441.746 193.689 441.673 192.821C441.606 191.952 441.246 191.132 440.652 190.495C440.057 189.858 439.264 189.442 438.403 189.315C437.541 189.188 436.661 189.357 435.909 189.796C435.156 190.234 434.574 190.916 434.26 191.728C432.479 191.753 428.686 191.173 426.905 191.198C423.125 181.504 431.363 168.819 440.231 164.054C449.272 159.197 461.008 164.138 464.473 174.262C469.283 174.348 473.191 179.093 473.811 184.435C474.43 189.776 472.234 195.353 468.873 199.447C465.512 203.541 461.1 206.525 458.587 206.57Z" fill="#2F2E41"/>
<path d="M423.779 448.365C422.921 448.36 422.095 448.04 421.457 447.467C420.819 446.893 420.413 446.105 420.317 445.252L416.388 313.121L465.884 316.645L465.922 316.963C477.108 410.618 473.284 443.038 473.244 443.354C473.217 443.834 473.091 444.302 472.874 444.73C472.658 445.159 472.355 445.538 471.985 445.844C471.616 446.15 471.187 446.376 470.726 446.509C470.265 446.642 469.782 446.679 469.306 446.616L458.367 446.879C457.538 446.785 456.77 446.397 456.202 445.785C455.634 445.173 455.304 444.378 455.272 443.544L445.052 347.843C444.989 347.594 444.84 347.376 444.632 347.226C444.424 347.076 444.17 347.004 443.914 347.023C443.651 347.022 443.396 347.113 443.192 347.279C442.988 347.446 442.849 347.678 442.797 347.937L438.849 443.952C438.891 444.843 438.589 445.716 438.005 446.391C437.422 447.066 436.601 447.49 435.713 447.577L424.126 448.347C424.011 448.359 423.895 448.365 423.779 448.365Z" fill="#2F2E41"/>
<path d="M444.317 328.908C444.021 328.908 443.726 328.904 443.429 328.895C429.197 328.466 418.062 317.695 414.988 314.404C414.597 313.985 414.315 313.475 414.169 312.92C414.023 312.365 414.016 311.782 414.149 311.224L422.36 276.479L420.181 246.273C419.839 242.081 420.389 237.864 421.794 233.899C423.199 229.935 425.428 226.313 428.333 223.273C430.754 220.714 433.697 218.706 436.962 217.385C440.227 216.064 443.738 215.46 447.256 215.615C461.111 216.276 472.041 228.664 472.14 243.815C472.293 267.283 471.602 268.895 471.376 269.425C464.461 285.567 468.237 308.225 469.56 314.785C469.678 315.371 469.644 315.976 469.463 316.545C469.281 317.114 468.957 317.627 468.522 318.036C460.917 325.253 452.778 328.908 444.317 328.908Z" fill="#3F3D56"/>
<path d="M480.061 320.076C479.272 320.076 478.505 319.807 477.888 319.315C477.271 318.822 476.839 318.134 476.662 317.364L468.192 280.452L456.839 238.261C456.354 236.472 456.286 234.596 456.639 232.776C456.993 230.957 457.758 229.243 458.877 227.765C459.894 226.381 461.291 225.321 462.897 224.714C464.504 224.106 466.252 223.977 467.93 224.342C471.599 225.178 474.452 228.251 475.375 232.362L484.652 273.677L489.278 315.544C489.378 316.463 489.111 317.383 488.535 318.105C487.959 318.827 487.121 319.292 486.203 319.398L480.461 320.053C480.329 320.069 480.195 320.076 480.061 320.076Z" fill="#3F3D56"/>
<path d="M23.924 324.057C24.9291 323.368 25.771 322.467 26.3902 321.417C27.0094 320.367 27.391 319.194 27.508 317.981C27.625 316.767 27.4747 315.543 27.0675 314.394C26.6604 313.245 26.0063 312.199 25.1515 311.331L28.385 239.133L11.9228 240.981L12.8792 311.601C11.5154 313.134 10.7612 315.115 10.7596 317.167C10.758 319.219 11.509 321.201 12.8705 322.736C14.2319 324.272 16.1091 325.254 18.1463 325.498C20.1835 325.741 22.2393 325.229 23.924 324.057Z" fill="#FFB8B8"/>
<path d="M53.955 446.272L63.3246 447.92L72.5848 412.555L60.3085 410.123L53.955 446.272Z" fill="#FFB8B8"/>
<path d="M79.8645 459.8L50.4181 454.622L52.4182 443.241L70.4876 446.419C71.9816 446.682 73.4093 447.236 74.6891 448.051C75.9689 448.865 77.0758 449.924 77.9465 451.167C78.8173 452.409 79.4348 453.811 79.7639 455.292C80.093 456.774 80.1272 458.305 79.8645 459.8Z" fill="#2F2E41"/>
<path d="M28.2384 450.963H37.7516L42.2769 414.26L28.2369 414.261L28.2384 450.963Z" fill="#FFB8B8"/>
<path d="M56.0984 459.798L26.2005 459.8L26.1999 448.245L44.5465 448.244C47.6101 448.244 50.5483 449.461 52.7147 451.628C54.8811 453.795 56.0983 456.734 56.0984 459.798Z" fill="#2F2E41"/>
<path d="M68.7065 440.913C68.5581 440.913 68.4097 440.904 68.2623 440.886L57.0653 439.965C56.5555 439.905 56.0632 439.742 55.6184 439.486C55.1735 439.229 54.7853 438.885 54.4774 438.475C54.1695 438.064 53.9484 437.595 53.8273 437.096C53.7063 436.597 53.6879 436.078 53.7733 435.572L64.1126 377.607L57.1263 340.759C57.0694 340.459 56.9061 340.191 56.6666 340.002C56.4272 339.814 56.1277 339.718 55.8234 339.734C55.5192 339.749 55.2306 339.873 55.011 340.085C54.7914 340.296 54.6556 340.579 54.6286 340.883L45.8946 439.168C45.7987 440.154 45.3235 441.064 44.5693 441.707C43.8151 442.35 42.8409 442.674 41.8522 442.612L31.3033 442.219C30.3789 442.153 29.5104 441.751 28.8619 441.089C28.2133 440.427 27.8296 439.55 27.7833 438.624L27.0742 320.827L81.7641 313.989L85.5846 373.009L85.5694 373.072L72.3854 438.018C72.1846 438.843 71.7129 439.576 71.0459 440.101C70.3789 440.626 69.5552 440.912 68.7065 440.913Z" fill="#2F2E41"/>
<path d="M45.1053 192.348C55.6309 192.348 64.1635 183.813 64.1635 173.284C64.1635 162.756 55.6309 154.221 45.1053 154.221C34.5798 154.221 26.0472 162.756 26.0472 173.284C26.0472 183.813 34.5798 192.348 45.1053 192.348Z" fill="#FFB8B8"/>
<path d="M63.0629 329.436C60.0822 329.454 57.1588 328.617 54.6384 327.025C45.4066 321.254 34.921 323.548 29.4923 325.429C28.9536 325.618 28.3792 325.682 27.8121 325.617C27.245 325.553 26.6998 325.361 26.2173 325.056C25.7404 324.756 25.3374 324.353 25.0385 323.875C24.7396 323.398 24.5525 322.859 24.4913 322.299L14.6193 234.106C12.9649 219.33 21.8634 205.437 35.7777 201.072C36.3004 200.908 36.832 200.753 37.3724 200.606C41.7024 199.432 46.237 199.221 50.6573 199.988C55.0775 200.755 59.2759 202.482 62.9571 205.048C66.7067 207.641 69.8426 211.025 72.144 214.961C74.4454 218.897 75.8564 223.29 76.2777 227.831L84.5885 316.615C84.6451 317.189 84.5675 317.769 84.3619 318.309C84.1562 318.849 83.8282 319.333 83.4035 319.725C80.4902 322.421 72.0345 329.435 63.0629 329.436Z" fill="#E62727"/>
<path d="M33.0016 253.019L10.7292 250.569C10.0955 250.499 9.48422 250.294 8.93707 249.966C8.38992 249.639 7.91973 249.198 7.55851 248.672C7.19728 248.147 6.95352 247.55 6.84382 246.921C6.73412 246.293 6.76106 245.649 6.92282 245.032L12.592 223.418C12.9668 220.177 14.6113 217.217 17.1648 215.187C19.7183 213.157 22.9725 212.222 26.2137 212.588C29.455 212.954 32.4189 214.591 34.4555 217.14C36.4921 219.688 37.4353 222.941 37.0782 226.184L37.9198 248.441C37.9437 249.078 37.83 249.713 37.5865 250.303C37.3429 250.892 36.9753 251.422 36.5085 251.856C36.0418 252.291 35.4869 252.619 34.8818 252.82C34.2766 253.02 33.6353 253.088 33.0016 253.019Z" fill="#E62727"/>
<path d="M84.4993 320.966C85.4141 320.16 86.1412 319.164 86.6294 318.047C87.1176 316.93 87.3551 315.72 87.3251 314.501C87.2951 313.283 86.9983 312.086 86.4557 310.994C85.9131 309.903 85.1379 308.943 84.1846 308.184L78.6963 236.123L62.5654 239.755L72.0343 309.932C70.8651 311.618 70.355 313.675 70.6007 315.713C70.8464 317.75 71.8307 319.627 73.3672 320.987C74.9036 322.347 76.8855 323.096 78.9373 323.092C80.989 323.088 82.968 322.332 84.4993 320.966Z" fill="#FFB8B8"/>
<path d="M56.3811 248.488C55.9142 248.054 55.5464 247.524 55.3029 246.935C55.0594 246.346 54.9458 245.711 54.9701 245.073L55.8117 222.816C55.4546 219.573 56.3977 216.321 58.4343 213.772C60.4709 211.223 63.4348 209.587 66.6761 209.22C69.9174 208.854 73.1715 209.789 75.725 211.819C78.2785 213.849 79.923 216.809 80.2979 220.051L85.967 241.664C86.1288 242.281 86.1557 242.926 86.046 243.554C85.9363 244.182 85.6926 244.779 85.3313 245.305C84.9701 245.83 84.4999 246.271 83.9528 246.599C83.4056 246.926 82.7944 247.132 82.1607 247.201L59.8882 249.651C59.2545 249.721 58.613 249.653 58.0078 249.453C57.4025 249.252 56.8476 248.923 56.3811 248.488Z" fill="#E62727"/>
<path d="M43.9719 193.066C43.6331 193.066 43.2955 193.026 42.9658 192.949L42.8689 192.925C26.1127 190.361 22.4097 180.653 21.5968 176.598C20.7555 172.401 21.7135 168.349 23.8782 166.775C22.698 163.047 22.8874 159.742 24.4426 156.947C27.1548 152.073 33.0409 150.424 33.8303 150.223C38.5311 146.754 44.1555 149.07 45.1788 149.539C54.2718 146.174 57.7473 148.975 58.3759 149.601C62.4405 150.331 64.918 151.901 65.7406 154.27C67.2855 158.718 62.3998 164.251 62.191 164.485L62.0827 164.606L54.8041 164.952C54.1135 164.985 53.4375 165.163 52.8199 165.474C52.2024 165.785 51.6571 166.223 51.2195 166.758C50.7819 167.294 50.4617 167.915 50.2797 168.583C50.0977 169.25 50.0579 169.948 50.163 170.631C50.36 171.514 50.6089 172.383 50.9083 173.236C52.1513 177.122 53.0827 180.441 51.8814 181.703C51.6093 181.947 51.2739 182.11 50.9136 182.173C50.5534 182.235 50.1828 182.195 49.8444 182.056C48.7064 181.753 47.9337 181.816 47.5487 182.246C46.951 182.913 47.1335 184.602 48.0625 187.001C48.354 187.759 48.4324 188.583 48.2894 189.383C48.1463 190.183 47.7872 190.929 47.2509 191.539C46.8471 192.016 46.3449 192.399 45.7788 192.662C45.2127 192.926 44.5963 193.064 43.9719 193.066Z" fill="#2F2E41"/>
<path d="M109.409 461H0.775952C0.570156 461 0.372778 460.918 0.227259 460.773C0.0817394 460.627 0 460.43 0 460.224C0 460.018 0.0817394 459.821 0.227259 459.675C0.372778 459.53 0.570156 459.448 0.775952 459.448H109.409C109.615 459.448 109.812 459.53 109.958 459.675C110.103 459.821 110.185 460.018 110.185 460.224C110.185 460.43 110.103 460.627 109.958 460.773C109.812 460.918 109.615 461 109.409 461Z" fill="#D9D9D9"/>
<path d="M488.073 461H379.44C379.234 461 379.037 460.918 378.892 460.773C378.746 460.627 378.664 460.43 378.664 460.224C378.664 460.018 378.746 459.821 378.892 459.675C379.037 459.53 379.234 459.448 379.44 459.448H488.073C488.279 459.448 488.477 459.53 488.622 459.675C488.768 459.821 488.849 460.018 488.849 460.224C488.849 460.43 488.768 460.627 488.622 460.773C488.477 460.918 488.279 461 488.073 461Z" fill="#D9D9D9"/>
<path d="M332.66 329.097H144.88C137.68 329.089 130.777 326.224 125.685 321.131C120.594 316.038 117.73 309.133 117.722 301.931V27.166C117.73 19.9636 120.594 13.0586 125.685 7.96577C130.777 2.87292 137.68 0.00817413 144.88 0H332.66C339.861 0.00817413 346.764 2.87292 351.855 7.96577C356.946 13.0586 359.81 19.9636 359.819 27.166V301.931C359.81 309.133 356.946 316.038 351.855 321.131C346.764 326.224 339.861 329.089 332.66 329.097Z" fill="white"/>
<path d="M303.174 218.127H174.366C161.209 218.064 161.154 198.015 174.367 197.947L303.174 197.947C316.323 198.008 316.394 218.058 303.174 218.127Z" fill="#D9D9D9"/>
<path d="M303.174 56.6375H174.366C161.209 56.5741 161.154 36.5257 174.367 36.4571L303.174 36.457C316.323 36.5186 316.394 56.5686 303.174 56.6375Z" fill="#D9D9D9"/>
<path d="M303.174 255.383H174.366C161.209 255.32 161.154 235.271 174.367 235.203L303.174 235.203C316.323 235.264 316.394 255.314 303.174 255.383Z" fill="#D9D9D9"/>
<path d="M303.174 292.639H174.366C161.209 292.576 161.154 272.528 174.367 272.459L303.174 272.459C316.323 272.521 316.394 292.571 303.174 292.639Z" fill="#D9D9D9"/>
<path d="M300.846 173.73H176.694C173.3 173.726 170.045 172.376 167.645 169.975C165.245 167.574 163.895 164.319 163.891 160.923V91.3786C163.895 87.9832 165.245 84.728 167.645 82.327C170.045 79.9261 173.3 78.5756 176.694 78.5718H300.846C304.241 78.5756 307.495 79.9261 309.895 82.327C312.295 84.728 313.646 87.9832 313.649 91.3786V160.923C313.646 164.319 312.295 167.574 309.895 169.975C307.495 172.376 304.241 173.726 300.846 173.73Z" fill="#E62727"/>
<path d="M332.66 329.097H144.88C137.68 329.089 130.777 326.224 125.685 321.131C120.594 316.038 117.73 309.133 117.722 301.931V27.166C117.73 19.9636 120.594 13.0586 125.685 7.96577C130.777 2.87292 137.68 0.00817413 144.88 0H332.66C339.861 0.00817413 346.764 2.87292 351.855 7.96577C356.946 13.0586 359.81 19.9636 359.819 27.166V301.931C359.81 309.133 356.946 316.038 351.855 321.131C346.764 326.224 339.861 329.089 332.66 329.097ZM144.88 4.65703C138.914 4.66378 133.194 7.03742 128.976 11.2572C124.757 15.477 122.384 21.1983 122.377 27.166V301.931C122.384 307.898 124.757 313.62 128.976 317.84C133.194 322.059 138.914 324.433 144.88 324.44H332.66C338.626 324.433 344.346 322.059 348.565 317.84C352.783 313.62 355.156 307.898 355.163 301.931V27.166C355.156 21.1983 352.783 15.477 348.565 11.2572C344.346 7.03739 338.626 4.66376 332.66 4.65703H144.88Z" fill="#FFB8B8"/>
</g>
<defs>
<clipPath id="clip0_1685_536">
<rect width="490" height="461" fill="white"/>
</clipPath>
</defs>
</svg>
