<svg width="50" height="50" viewBox="0 0 50 50" fill="none" xmlns="http://www.w3.org/2000/svg">
<path d="M14.583 47.9167L20.9893 15.5208C21.1976 14.5139 21.6663 13.7587 22.3955 13.2552C23.1247 12.7517 23.8886 12.5 24.6872 12.5C25.4858 12.5 26.2236 12.6736 26.9007 13.0208C27.5778 13.3681 28.1247 13.8889 28.5413 14.5833L30.6247 17.9167C31.2497 18.9236 32.057 19.8351 33.0465 20.651C34.0361 21.467 35.1733 22.066 36.458 22.4479V18.75H39.583V47.9167H36.458V26.7708C34.7913 26.3889 33.2462 25.7813 31.8226 24.9479C30.399 24.1146 29.1663 23.0903 28.1247 21.875L26.8747 28.125L31.2497 32.2917V47.9167H27.083V35.4167L22.708 31.25L18.958 47.9167H14.583ZM15.4684 27.3438L11.0413 26.5104C10.4858 26.4063 10.0518 26.1198 9.73926 25.651C9.42676 25.1823 9.32259 24.6528 9.42676 24.0625L10.9893 15.8854C11.1976 14.7743 11.7879 13.8976 12.7601 13.2552C13.7323 12.6128 14.774 12.3958 15.8851 12.6042L18.2809 13.0729L15.4684 27.3438ZM28.1247 11.4583C26.9788 11.4583 25.9979 11.0503 25.182 10.2344C24.366 9.4184 23.958 8.4375 23.958 7.29167C23.958 6.14583 24.366 5.16493 25.182 4.34896C25.9979 3.53299 26.9788 3.125 28.1247 3.125C29.2705 3.125 30.2514 3.53299 31.0674 4.34896C31.8834 5.16493 32.2913 6.14583 32.2913 7.29167C32.2913 8.4375 31.8834 9.4184 31.0674 10.2344C30.2514 11.0503 29.2705 11.4583 28.1247 11.4583Z" fill="#1F1F1F"/>
</svg>
