<svg width="41" height="40" viewBox="0 0 41 40" fill="none" xmlns="http://www.w3.org/2000/svg">
<g clip-path="url(#clip0_1685_510)">
<path d="M27.9972 0C20.9872 0 15.4972 3.295 15.4972 7.5V11.8117C14.6922 11.7167 13.8555 11.6667 12.9972 11.6667C5.98719 11.6667 0.497192 14.9617 0.497192 19.1667V32.5C0.497192 36.705 5.98719 40 12.9972 40C18.6755 40 23.3572 37.8383 24.9305 34.7817C25.9272 34.9267 26.9539 35 27.9972 35C35.0072 35 40.4972 31.705 40.4972 27.5V7.5C40.4972 3.295 35.0072 0 27.9972 0ZM37.1639 20.8333C37.1639 22.8 33.2439 25 27.9972 25C27.1439 25 26.3072 24.9417 25.4972 24.8283V21.5217C26.3139 21.6167 27.1505 21.6667 27.9972 21.6667C31.6539 21.6667 34.8972 20.77 37.1639 19.315V20.8333ZM3.83053 24.315C6.09719 25.77 9.34053 26.6667 12.9972 26.6667C16.6539 26.6667 19.8972 25.77 22.1639 24.315V25.8333C22.1639 27.8 18.2439 30 12.9972 30C7.75053 30 3.83053 27.8 3.83053 25.8333V24.315ZM37.1639 14.1667C37.1639 16.1333 33.2439 18.3333 27.9972 18.3333C27.1055 18.3333 26.2305 18.27 25.3872 18.1467C25.0655 16.6683 24.0539 15.34 22.5439 14.275C24.1839 14.7417 26.0305 15 27.9972 15C31.6539 15 34.8972 14.1033 37.1639 12.6483V14.1667ZM27.9972 3.33333C33.2439 3.33333 37.1639 5.53333 37.1639 7.5C37.1639 9.46667 33.2439 11.6667 27.9972 11.6667C22.7505 11.6667 18.8305 9.46667 18.8305 7.5C18.8305 5.53333 22.7505 3.33333 27.9972 3.33333ZM12.9972 15C18.2439 15 22.1639 17.2 22.1639 19.1667C22.1639 21.1333 18.2439 23.3333 12.9972 23.3333C7.75053 23.3333 3.83053 21.1333 3.83053 19.1667C3.83053 17.2 7.75053 15 12.9972 15ZM12.9972 36.6667C7.75053 36.6667 3.83053 34.4667 3.83053 32.5V30.9817C6.09719 32.4367 9.34053 33.3333 12.9972 33.3333C16.6539 33.3333 19.8972 32.4367 22.1639 30.9817V32.5C22.1639 34.4667 18.2439 36.6667 12.9972 36.6667ZM27.9972 31.6667C27.1439 31.6667 26.3072 31.6083 25.4972 31.495V28.1883C26.3139 28.2833 27.1505 28.3333 27.9972 28.3333C31.6539 28.3333 34.8972 27.4367 37.1639 25.9817V27.5C37.1639 29.4667 33.2439 31.6667 27.9972 31.6667Z" fill="white"/>
</g>
<defs>
<clipPath id="clip0_1685_510">
<rect width="40" height="40" fill="white" transform="translate(0.497192)"/>
</clipPath>
</defs>
</svg>
