<svg width="40" height="41" viewBox="0 0 40 41" fill="none" xmlns="http://www.w3.org/2000/svg">
<g clip-path="url(#clip0_1685_671)">
<path d="M24.1667 21.3331C24.1667 23.6348 22.3017 25.4998 20 25.4998C17.6984 25.4998 15.8334 23.6348 15.8334 21.3331C15.8334 19.0314 17.6984 17.1664 20 17.1664C22.3017 17.1664 24.1667 19.0314 24.1667 21.3331ZM30.7984 27.1664H9.20169L3.86669 19.5448L1.13502 21.4548L7.46669 30.4998H13.335V40.4998H26.6684V30.4998H32.5367L38.8684 21.4548L36.1367 19.5448L30.8017 27.1664H30.7984ZM18.3334 13.5764L22.925 8.98477C23.47 8.43977 23.47 7.5581 22.925 7.0131L18.3334 2.42144V6.33311H15V9.66644H18.3334V13.5764ZM38.1634 9.33811L39.83 10.2981L38.1667 13.1848L36.4967 12.2231C35.845 12.8414 35.0467 13.2931 34.165 13.5581V15.4964H30.8317V13.5581C29.95 13.2931 29.1534 12.8398 28.5 12.2231L26.83 13.1848L25.1667 10.2981L26.8334 9.33811C26.7317 8.90644 26.6634 8.46144 26.6634 7.99977C26.6634 7.53811 26.7317 7.0931 26.8334 6.66144L25.1667 5.70144L26.83 2.81477L28.5 3.77644C29.1517 3.1581 29.95 2.70644 30.8317 2.44144V0.499771H34.165V2.4381C35.0467 2.7031 35.8434 3.15644 36.4967 3.7731L38.1667 2.81144L39.83 5.6981L38.1634 6.6581C38.265 7.08977 38.3334 7.53477 38.3334 7.99644C38.3334 8.45811 38.265 8.9031 38.1634 9.33477V9.33811ZM35 7.99977C35 6.62144 33.8784 5.49977 32.5 5.49977C31.1217 5.49977 30 6.62144 30 7.99977C30 9.37811 31.1217 10.4998 32.5 10.4998C33.8784 10.4998 35 9.37811 35 7.99977ZM8.28502 15.4998V12.1664H3.28502V15.4998H8.28502ZM2.45169 10.4998H9.11836C10.785 9.66644 11.6184 7.93144 11.6184 6.33311C11.6184 4.54477 10.815 2.87977 9.41336 1.7631C8.01169 0.649772 6.19169 0.244771 4.41336 0.656438C2.28836 1.1481 0.596692 2.83977 0.106692 4.96644C-0.366642 7.01977 0.785025 9.66644 2.45169 10.4998Z" fill="white"/>
</g>
<defs>
<clipPath id="clip0_1685_671">
<rect width="40" height="40" fill="white" transform="translate(0 0.5)"/>
</clipPath>
</defs>
</svg>
