<svg width="24" height="24" viewBox="0 0 24 24" fill="none" xmlns="http://www.w3.org/2000/svg">
<g clip-path="url(#clip0_128_162)">
<path d="M22.7629 10.232L17.8129 5.28198L16.3999 6.69998L20.6999 11H6.61694V13H20.6999L16.3999 17.3L17.8139 18.714L22.7639 13.764C22.9962 13.5318 23.1804 13.2562 23.306 12.9528C23.4317 12.6495 23.4964 12.3243 23.4964 11.996C23.4964 11.6676 23.4317 11.3425 23.306 11.0391C23.1804 10.7358 22.9962 10.4601 22.7639 10.228L22.7629 10.232Z" fill="#808080"/>
<path d="M10.476 21C10.476 21.2652 10.3706 21.5196 10.1831 21.7071C9.99557 21.8946 9.74122 22 9.476 22H3C2.73478 22 2.48043 21.8946 2.29289 21.7071C2.10536 21.5196 2 21.2652 2 21V3C2 2.73478 2.10536 2.48043 2.29289 2.29289C2.48043 2.10536 2.73478 2 3 2H9.476C9.74122 2 9.99557 2.10536 10.1831 2.29289C10.3706 2.48043 10.476 2.73478 10.476 3V8.333H12.476V3C12.476 2.20435 12.1599 1.44129 11.5973 0.87868C11.0347 0.31607 10.2716 0 9.476 0L3 0C2.20435 0 1.44129 0.31607 0.87868 0.87868C0.31607 1.44129 0 2.20435 0 3L0 21C0 21.7956 0.31607 22.5587 0.87868 23.1213C1.44129 23.6839 2.20435 24 3 24H9.476C10.2716 24 11.0347 23.6839 11.5973 23.1213C12.1599 22.5587 12.476 21.7956 12.476 21V15.667H10.476V21Z" fill="#808080"/>
</g>
<defs>
<clipPath id="clip0_128_162">
<rect width="24" height="24" fill="white"/>
</clipPath>
</defs>
</svg>
