<svg width="81" height="81" viewBox="0 0 81 81" fill="none" xmlns="http://www.w3.org/2000/svg">
<g clip-path="url(#clip0_1684_394)">
<path d="M46.8821 7.40778L50.4854 5.96857C55.1216 4.11677 60.3995 6.38182 62.2513 11.018C64.103 15.6543 61.838 20.9321 57.2018 22.7839L53.5985 24.2231L46.8821 7.40778ZM48.916 26.4471L42.0346 9.21864C39.8939 9.85643 38.0838 10.1087 36.206 10.3657C33.4525 10.7385 30.6049 11.1266 26.7061 12.6838C8.97077 19.7677 9.24194 31.723 10.8433 35.7323C13.1537 41.5167 20.9015 45.6419 32.456 41.0268C36.6262 39.3612 39.766 35.8342 42.7997 32.4248C44.8437 30.1293 46.8032 27.9289 48.9169 26.4495L48.916 26.4471ZM58.4251 64.2019L51.5437 46.9734C48.9924 47.3574 46.0562 47.1124 42.9932 46.8567C38.4431 46.4764 33.7398 46.0821 29.5696 47.7478C18.0151 52.3629 15.2413 60.6906 17.5517 66.4751C19.1531 70.4843 27.1929 79.3367 44.9283 72.2529C48.827 70.6956 51.1575 69.0127 53.4111 67.3884C54.9507 66.2776 56.4331 65.212 58.4251 64.2019ZM63.1863 62.1749L66.7896 60.7356C71.4258 58.8838 73.6909 53.606 71.8391 48.9698C69.9873 44.3336 64.7094 42.0685 60.0732 43.9203L56.4699 45.3595L63.1863 62.1749Z" fill="white" fill-opacity="0.7"/>
</g>
<defs>
<clipPath id="clip0_1684_394">
<rect width="62.0812" height="62.0812" fill="white" transform="translate(23.3086 80.8882) rotate(-111.773)"/>
</clipPath>
</defs>
</svg>
