<svg width="39" height="37" viewBox="0 0 39 37" fill="none" xmlns="http://www.w3.org/2000/svg">
<path d="M17.699 2.03168C18.4078 0.479172 20.6104 0.470619 21.3312 2.01758L25.4284 10.8104C25.7222 11.4409 26.3225 11.8735 27.0135 11.9527L36.651 13.0575C38.3466 13.2518 39.0353 15.3439 37.7868 16.5075L30.6904 23.1214C30.1816 23.5956 29.9557 24.3001 30.0939 24.9818L32.0213 34.489C32.3604 36.1617 30.5836 37.4632 29.0911 36.6354L20.6081 31.9301C19.9998 31.5927 19.2599 31.5956 18.6543 31.9377L10.2081 36.7087C8.72209 37.5481 6.93515 36.2603 7.26126 34.5851L9.11486 25.0633C9.24777 24.3805 9.01641 23.6777 8.50391 23.2075L1.35638 16.6489C0.0988921 15.4951 0.771387 13.3977 2.46538 13.1901L12.094 12.0106C12.7844 11.926 13.3813 11.4888 13.6702 10.8561L17.699 2.03168Z" fill="#F7DF1E"/>
</svg>
