<svg width="70" height="70" viewBox="0 0 70 70" fill="none" xmlns="http://www.w3.org/2000/svg">
<path d="M35.0003 35C31.792 35 29.0455 33.8576 26.7607 31.5729C24.476 29.2882 23.3337 26.5417 23.3337 23.3333C23.3337 20.125 24.476 17.3785 26.7607 15.0937C29.0455 12.809 31.792 11.6667 35.0003 11.6667C38.2087 11.6667 40.9552 12.809 43.2399 15.0937C45.5246 17.3785 46.667 20.125 46.667 23.3333C46.667 26.5417 45.5246 29.2882 43.2399 31.5729C40.9552 33.8576 38.2087 35 35.0003 35ZM11.667 58.3333V50.1667C11.667 48.5139 12.0923 46.9948 12.943 45.6094C13.7937 44.224 14.9239 43.1667 16.3337 42.4375C19.3475 40.9306 22.41 39.8003 25.5212 39.0469C28.6323 38.2934 31.792 37.9167 35.0003 37.9167C38.2087 37.9167 41.3684 38.2934 44.4795 39.0469C47.5906 39.8003 50.6531 40.9306 53.667 42.4375C55.0767 43.1667 56.2069 44.224 57.0576 45.6094C57.9083 46.9948 58.3337 48.5139 58.3337 50.1667V58.3333H11.667ZM17.5003 52.5H52.5003V50.1667C52.5003 49.6319 52.3666 49.1458 52.0993 48.7083C51.8319 48.2708 51.4795 47.9306 51.042 47.6875C48.417 46.375 45.7677 45.3906 43.0941 44.7344C40.4205 44.0781 37.7225 43.75 35.0003 43.75C32.2781 43.75 29.5802 44.0781 26.9066 44.7344C24.233 45.3906 21.5837 46.375 18.9587 47.6875C18.5212 47.9306 18.1687 48.2708 17.9014 48.7083C17.634 49.1458 17.5003 49.6319 17.5003 50.1667V52.5ZM35.0003 29.1667C36.6045 29.1667 37.9778 28.5955 39.1201 27.4531C40.2625 26.3108 40.8337 24.9375 40.8337 23.3333C40.8337 21.7292 40.2625 20.3559 39.1201 19.2135C37.9778 18.0712 36.6045 17.5 35.0003 17.5C33.3962 17.5 32.0229 18.0712 30.8805 19.2135C29.7382 20.3559 29.167 21.7292 29.167 23.3333C29.167 24.9375 29.7382 26.3108 30.8805 27.4531C32.0229 28.5955 33.3962 29.1667 35.0003 29.1667Z" fill="white"/>
</svg>
