<svg width="35" height="27" viewBox="0 0 35 27" fill="none" xmlns="http://www.w3.org/2000/svg">
<g clip-path="url(#clip0_354_1001)">
<path d="M5.59981 12.6C7.1462 12.6 8.39979 11.3464 8.39979 9.8C8.39979 8.25361 7.1462 7 5.59981 7C4.05341 7 2.7998 8.25361 2.7998 9.8C2.7998 11.3464 4.05341 12.6 5.59981 12.6Z" stroke="white" stroke-width="2" stroke-miterlimit="10"/>
<path d="M8.2996 23.5998H2.59961C1.69961 23.5998 1.09961 22.8998 1.09961 21.9998V19.1998C1.09961 16.9998 2.7996 15.2998 4.9996 15.2998H8.4996" stroke="white" stroke-width="2" stroke-miterlimit="10"/>
<path d="M17.6002 10.0002C20.0303 10.0002 22.0002 8.03026 22.0002 5.6002C22.0002 3.17015 20.0303 1.2002 17.6002 1.2002C15.1702 1.2002 13.2002 3.17015 13.2002 5.6002C13.2002 8.03026 15.1702 10.0002 17.6002 10.0002Z" stroke="white" stroke-width="2" stroke-miterlimit="10"/>
<path d="M24.1002 25.2002H10.7002C9.3002 25.2002 8.2002 24.1002 8.2002 22.7002V18.4002C8.2002 15.0002 11.1002 12.2002 14.6002 12.2002H20.3002C23.8002 12.2002 26.7002 15.0002 26.7002 18.4002V22.7002C26.6002 24.1002 25.5002 25.2002 24.1002 25.2002Z" stroke="white" stroke-width="2" stroke-miterlimit="10"/>
<path d="M29.0002 12.6C30.5466 12.6 31.8002 11.3464 31.8002 9.8C31.8002 8.25361 30.5466 7 29.0002 7C27.4538 7 26.2002 8.25361 26.2002 9.8C26.2002 11.3464 27.4538 12.6 29.0002 12.6Z" stroke="white" stroke-width="2" stroke-miterlimit="10"/>
<path d="M26.2996 23.5998H31.9996C32.8996 23.5998 33.4996 22.8998 33.4996 21.9998V19.1998C33.4996 16.9998 31.7996 15.2998 29.5996 15.2998H26.0996" stroke="white" stroke-width="2" stroke-miterlimit="10"/>
</g>
<defs>
<clipPath id="clip0_354_1001">
<rect width="35" height="27" fill="white"/>
</clipPath>
</defs>
</svg>
