<svg width="50" height="50" viewBox="0 0 50 50" fill="none" xmlns="http://www.w3.org/2000/svg">
<g clip-path="url(#clip0_1189_259)">
<path d="M50 33.3333V50H33.3333C30.4106 49.997 27.5401 49.2255 25.0097 47.7628C22.4793 46.3002 20.378 44.1978 18.9167 41.6667C20.4872 41.6554 22.0524 41.4823 23.5875 41.15C24.7566 42.6118 26.2396 43.7917 27.9266 44.6024C29.6137 45.4131 31.4616 45.8338 33.3333 45.8333H45.8333V33.3333C45.8328 31.4609 45.4109 29.6126 44.5987 27.9255C43.7865 26.2384 42.605 24.7557 41.1417 23.5875C41.4768 22.0527 41.6527 20.4875 41.6667 18.9167C44.1978 20.378 46.3002 22.4793 47.7628 25.0097C49.2255 27.5401 49.997 30.4106 50 33.3333ZM37.5 18.75C37.5 13.7772 35.5246 9.00805 32.0083 5.49175C28.4919 1.97544 23.7228 0 18.75 0C13.7772 0 9.00805 1.97544 5.49175 5.49175C1.97544 9.00805 0 13.7772 0 18.75L0 37.5H18.75C23.7211 37.4945 28.487 35.5173 32.0022 32.0022C35.5173 28.487 37.4945 23.7211 37.5 18.75ZM4.16667 18.75C4.16667 15.8657 5.02196 13.0462 6.6244 10.6479C8.22684 8.24972 10.5044 6.38053 13.1692 5.27676C15.834 4.17298 18.7662 3.88418 21.5951 4.44688C24.424 5.00958 27.0225 6.39851 29.062 8.43803C31.1015 10.4775 32.4904 13.076 33.0531 15.9049C33.6158 18.7338 33.327 21.666 32.2232 24.3308C31.1195 26.9956 29.2503 29.2732 26.8521 30.8756C24.4538 32.478 21.6343 33.3333 18.75 33.3333H4.16667V18.75Z" fill="white"/>
</g>
<defs>
<clipPath id="clip0_1189_259">
<rect width="50" height="50" fill="white"/>
</clipPath>
</defs>
</svg>
