<svg width="50" height="50" viewBox="0 0 50 50" fill="none" xmlns="http://www.w3.org/2000/svg">
<g clip-path="url(#clip0_1194_468)">
<path d="M10.4167 12.5C13.8625 12.5 16.6667 9.69583 16.6667 6.25C16.6667 2.80417 13.8625 0 10.4167 0C6.97083 0 4.16667 2.80417 4.16667 6.25C4.16667 9.69583 6.97083 12.5 10.4167 12.5ZM10.4167 2.08333C12.7146 2.08333 14.5833 3.95208 14.5833 6.25C14.5833 8.54792 12.7146 10.4167 10.4167 10.4167C8.11875 10.4167 6.25 8.54792 6.25 6.25C6.25 3.95208 8.11875 2.08333 10.4167 2.08333ZM11.4583 18.75C6.28958 18.75 2.08333 22.9562 2.08333 28.125C2.08333 28.7 1.61667 29.1667 1.04167 29.1667C0.466667 29.1667 0 28.7 0 28.125C0 21.8083 5.13958 16.6667 11.4583 16.6667C12.2292 16.6667 13 16.7437 13.7479 16.8937C14.3125 17.0083 14.6771 17.5562 14.5625 18.1229C14.4479 18.6854 13.8896 19.0521 13.3354 18.9375C12.7229 18.8125 12.0917 18.75 11.4583 18.75ZM29.1667 12.5C32.6125 12.5 35.4167 9.69583 35.4167 6.25C35.4167 2.80417 32.6125 0 29.1667 0C25.7208 0 22.9167 2.80417 22.9167 6.25C22.9167 9.69583 25.7208 12.5 29.1667 12.5ZM29.1667 2.08333C31.4646 2.08333 33.3333 3.95208 33.3333 6.25C33.3333 8.54792 31.4646 10.4167 29.1667 10.4167C26.8687 10.4167 25 8.54792 25 6.25C25 3.95208 26.8687 2.08333 29.1667 2.08333ZM28.125 16.6667C34.4437 16.6667 39.5833 21.8083 39.5833 28.125C39.5833 28.7 39.1167 29.1667 38.5417 29.1667C37.9667 29.1667 37.5 28.7 37.5 28.125C37.5 22.9562 33.2937 18.75 28.125 18.75C27.4917 18.75 26.8604 18.8125 26.2479 18.9375C25.6917 19.0604 25.1354 18.6854 25.0208 18.1229C24.9062 17.5583 25.2729 17.0083 25.8354 16.8937C26.5833 16.7437 27.3542 16.6667 28.125 16.6667ZM13.5417 27.0833C13.5417 30.5292 16.3458 33.3333 19.7917 33.3333C23.2375 33.3333 26.0417 30.5292 26.0417 27.0833C26.0417 23.6375 23.2375 20.8333 19.7917 20.8333C16.3458 20.8333 13.5417 23.6375 13.5417 27.0833ZM19.7917 22.9167C22.0896 22.9167 23.9583 24.7854 23.9583 27.0833C23.9583 29.3812 22.0896 31.25 19.7917 31.25C17.4937 31.25 15.625 29.3812 15.625 27.0833C15.625 24.7854 17.4937 22.9167 19.7917 22.9167ZM31.25 48.9583C31.25 49.5333 30.7833 50 30.2083 50C29.6333 50 29.1667 49.5333 29.1667 48.9583C29.1667 43.7896 24.9604 39.5833 19.7917 39.5833C14.6229 39.5833 10.4167 43.7896 10.4167 48.9583C10.4167 49.5333 9.95 50 9.375 50C8.8 50 8.33333 49.5333 8.33333 48.9583C8.33333 42.6417 13.4729 37.5 19.7917 37.5C26.1104 37.5 31.25 42.6417 31.25 48.9583ZM50 40.625C50 41.2 49.5333 41.6667 48.9583 41.6667H41.6667V48.9583C41.6667 49.5333 41.2 50 40.625 50C40.05 50 39.5833 49.5333 39.5833 48.9583V41.6667H32.2917C31.7167 41.6667 31.25 41.2 31.25 40.625C31.25 40.05 31.7167 39.5833 32.2917 39.5833H39.5833V32.2917C39.5833 31.7167 40.05 31.25 40.625 31.25C41.2 31.25 41.6667 31.7167 41.6667 32.2917V39.5833H48.9583C49.5333 39.5833 50 40.05 50 40.625Z" fill="white"/>
</g>
<defs>
<clipPath id="clip0_1194_468">
<rect width="50" height="50" fill="white"/>
</clipPath>
</defs>
</svg>
