<svg width="24" height="24" viewBox="0 0 24 24" fill="none" xmlns="http://www.w3.org/2000/svg">
<g clip-path="url(#clip0_128_146)">
<path d="M19 3H5C2.239 3 0 5.239 0 8V16C0 18.761 2.239 21 5 21H19C21.761 21 24 18.761 24 16V8C24 5.239 21.761 3 19 3ZM6.802 17.359C4.893 16.91 3.398 15.301 3.073 13.367C2.604 10.576 4.45 8.118 7 7.6V12.085C7 12.615 7.211 13.124 7.586 13.499L10.755 16.668C9.662 17.392 8.272 17.704 6.802 17.359ZM12.168 15.254L9.292 12.378C9.104 12.19 8.999 11.936 8.999 11.671V7.601C11.281 8.064 12.999 10.081 12.999 12.5C12.999 13.519 12.691 14.464 12.167 15.254H12.168ZM20 17H17C16.448 17 16 16.552 16 16C16 15.448 16.448 15 17 15H20C20.552 15 21 15.448 21 16C21 16.552 20.552 17 20 17ZM20 13H17C16.448 13 16 12.552 16 12C16 11.448 16.448 11 17 11H20C20.552 11 21 11.448 21 12C21 12.552 20.552 13 20 13ZM20 9H17C16.448 9 16 8.552 16 8C16 7.448 16.448 7 17 7H20C20.552 7 21 7.448 21 8C21 8.552 20.552 9 20 9Z" fill="#E62727"/>
</g>
<defs>
<clipPath id="clip0_128_146">
<rect width="24" height="24" fill="white"/>
</clipPath>
</defs>
</svg>
