<svg width="38" height="28" viewBox="0 0 38 28" fill="none" xmlns="http://www.w3.org/2000/svg">
<path d="M31.7832 2.36479C31.773 2.34499 31.756 2.32949 31.7354 2.32104C29.3527 1.22783 26.8383 0.448282 24.2551 0.0019121C24.2316 -0.00245108 24.2073 0.000696574 24.1858 0.0109074C24.1642 0.0211182 24.1464 0.0378723 24.1349 0.0587871C23.7925 0.680218 23.4817 1.31853 23.2036 1.97129C20.419 1.54859 17.5866 1.54859 14.802 1.97129C14.5221 1.31687 14.2063 0.678401 13.8561 0.0587871C13.844 0.0383269 13.8261 0.0219586 13.8047 0.0118141C13.7832 0.00166961 13.7592 -0.00178091 13.7358 0.0019121C11.1523 0.447345 8.63769 1.22695 6.2553 2.3211C6.23491 2.32975 6.2177 2.34451 6.20605 2.36335C1.44174 9.47822 0.136616 16.4182 0.776866 23.2722C0.778667 23.289 0.783828 23.3052 0.792042 23.32C0.800256 23.3347 0.811355 23.3477 0.824679 23.3581C3.59889 25.4122 6.70189 26.9801 10.0012 27.9949C10.0245 28.0019 10.0493 28.0016 10.0723 27.994C10.0954 27.9865 10.1156 27.972 10.1302 27.9527C10.8388 26.9885 11.4667 25.9675 12.0075 24.9C12.0149 24.8854 12.0192 24.8693 12.0199 24.8529C12.0207 24.8365 12.018 24.8201 12.012 24.8049C12.006 24.7896 11.9968 24.7757 11.985 24.7643C11.9733 24.7528 11.9592 24.7439 11.9438 24.7383C10.9537 24.3594 9.99507 23.9027 9.07705 23.3725C9.06038 23.3627 9.04637 23.3489 9.03627 23.3324C9.02618 23.3159 9.0203 23.2972 9.01915 23.2779C9.01801 23.2586 9.02164 23.2393 9.02972 23.2217C9.0378 23.2041 9.05009 23.1888 9.06549 23.1771C9.25812 23.0328 9.45087 22.8827 9.6348 22.731C9.65114 22.7176 9.67092 22.7089 9.6919 22.7061C9.71288 22.7033 9.73423 22.7064 9.75355 22.715C15.7679 25.4598 22.2792 25.4598 28.2223 22.715C28.2417 22.7058 28.2633 22.7023 28.2845 22.7049C28.3058 22.7075 28.3259 22.716 28.3426 22.7296C28.5266 22.8812 28.7192 23.0328 28.9133 23.1771C28.9288 23.1887 28.9412 23.2039 28.9494 23.2214C28.9576 23.2389 28.9614 23.2582 28.9604 23.2775C28.9594 23.2968 28.9536 23.3156 28.9437 23.3321C28.9337 23.3487 28.9198 23.3626 28.9032 23.3725C27.9872 23.9072 27.0278 24.3636 26.0351 24.7368C26.0196 24.7427 26.0056 24.7518 25.994 24.7634C25.9823 24.7751 25.9732 24.7891 25.9673 24.8045C25.9614 24.8199 25.9588 24.8363 25.9597 24.8528C25.9606 24.8693 25.965 24.8854 25.9726 24.9C26.5224 25.9615 27.1494 26.9812 27.8484 27.951C27.8626 27.9709 27.8827 27.9858 27.9058 27.9936C27.929 28.0015 27.954 28.0019 27.9774 27.9947C31.2826 26.9834 34.3911 25.4153 37.1687 23.3581C37.1823 23.3482 37.1935 23.3356 37.2018 23.321C37.21 23.3064 37.2151 23.2903 37.2166 23.2736C37.9831 15.3497 35.9333 8.4666 31.7832 2.36479ZM12.9057 19.0988C11.0949 19.0988 9.60293 17.4371 9.60293 15.3963C9.60293 13.3556 11.066 11.6938 12.9057 11.6938C14.7597 11.6938 16.2373 13.37 16.2084 15.3962C16.2084 17.4371 14.7452 19.0988 12.9057 19.0988ZM25.1169 19.0988C23.3062 19.0988 21.8142 17.4371 21.8142 15.3963C21.8142 13.3556 23.2773 11.6938 25.1169 11.6938C26.9711 11.6938 28.4486 13.37 28.4197 15.3962C28.4197 17.4371 26.9711 19.0988 25.1169 19.0988Z" fill="white"/>
</svg>
