<svg width="40" height="40" viewBox="0 0 40 40" fill="none" xmlns="http://www.w3.org/2000/svg">
<g clip-path="url(#clip0_1685_517)">
<path d="M39.085 35.5433L35.38 39.4767C35.0517 39.825 34.61 40 34.1667 40C33.7567 40 33.345 39.85 33.0233 39.5467C32.3533 38.915 32.3217 37.86 32.9533 37.19L35.0167 35H30C29.08 35 28.3333 34.2533 28.3333 33.3333C28.3333 32.4133 29.08 31.6667 30 31.6667H35.0183L32.9533 29.4767C32.3233 28.8067 32.3533 27.7517 33.0233 27.12C33.6917 26.4917 34.7467 26.52 35.38 27.19L39.12 31.1583C40.3033 32.34 40.3033 34.325 39.085 35.5433ZM4.62 12.81C4.94833 13.1583 5.39 13.3333 5.83333 13.3333C6.24333 13.3333 6.655 13.1833 6.97667 12.88C7.64667 12.2483 7.67833 11.1933 7.04667 10.5233L4.98167 8.33333H10C10.92 8.33333 11.6667 7.58667 11.6667 6.66667C11.6667 5.74667 10.92 5 10 5H4.98333L7.04667 2.81C7.67667 2.14 7.64667 1.085 6.97667 0.453333C6.30833 -0.176667 5.25167 -0.146667 4.62 0.523333L0.914999 4.45667C-0.303334 5.675 -0.303334 7.65667 0.879999 8.84L4.62 12.81ZM27.4033 15.5H23.9117V18.6667H27.4033C28.2767 18.6667 28.9867 17.9567 28.9867 17.0833C28.9867 16.21 28.2767 15.5 27.4033 15.5ZM28.675 11.25C28.675 10.3767 27.965 9.66667 27.0917 9.66667H23.9117V12.8333H27.0917C27.965 12.8333 28.675 12.1233 28.675 11.25ZM25.8317 0C18.0217 0 11.6667 6.355 11.6667 14.1667C11.6667 21.9783 18.0217 28.3333 25.8333 28.3333C33.645 28.3333 40 21.9783 40 14.1667C40 6.355 33.645 0 25.8333 0L25.8317 0ZM27.4017 21.3333H27.1633V22.0833C27.1633 22.82 26.5667 23.4167 25.83 23.4167C25.0933 23.4167 24.4967 22.82 24.4967 22.0833V21.3333H23.41C22.215 21.3333 21.2433 20.3617 21.2433 19.1667V9.16667C21.2433 7.97167 22.215 7 23.41 7H24.4967V6.21833C24.4967 5.48167 25.0933 4.885 25.83 4.885C26.5667 4.885 27.1633 5.48167 27.1633 6.21833V7.00833C29.4717 7.04833 31.3383 8.93167 31.3383 11.25C31.3383 12.2983 30.9567 13.26 30.325 14.0017C31.1417 14.7767 31.65 15.8717 31.65 17.0833C31.65 19.4267 29.745 21.3333 27.4017 21.3333ZM25.8317 31.6667C16.1667 31.6667 8.33167 23.8317 8.33167 14.1667C8.33167 13.975 8.355 13.7883 8.36 13.5983C3.44667 15.6933 -1.03586e-06 20.5683 -1.03586e-06 26.25C-1.03586e-06 33.8433 6.15666 40 13.75 40C19.4317 40 24.3067 36.5533 26.4017 31.6383C26.2117 31.645 26.025 31.6667 25.8333 31.6667H25.8317Z" fill="white"/>
</g>
<defs>
<clipPath id="clip0_1685_517">
<rect width="40" height="40" fill="white"/>
</clipPath>
</defs>
</svg>
