<svg width="41" height="40" viewBox="0 0 41 40" fill="none" xmlns="http://www.w3.org/2000/svg">
<g clip-path="url(#clip0_1685_524)">
<path d="M30.2405 23.695L22.9189 20.5417C21.3572 19.87 19.5655 19.87 18.0055 20.545L10.7305 23.695C9.52553 24.2167 8.77719 25.3567 8.77553 26.6683C8.77386 27.98 9.52053 29.1217 10.7222 29.6467L13.8305 31.0033V35.3233C13.8305 36.9467 14.7805 38.4333 16.2539 39.1117C17.5355 39.7017 18.9622 40 20.4972 40C22.0322 40 23.4589 39.7 24.7439 39.1117C26.2139 38.4333 27.1639 36.945 27.1639 35.3233V30.99L28.8305 30.2667V35.0017C28.8305 35.9233 29.5755 36.6683 30.4972 36.6683C31.4189 36.6683 32.1639 35.9233 32.1639 35.0017C32.1639 35.0017 32.1639 26.7567 32.1639 26.6683C32.1639 25.3733 31.4289 24.205 30.2405 23.6967V23.695ZM19.3305 23.605C20.0505 23.2917 20.8805 23.2917 21.6005 23.6017L28.8505 26.5633C28.8505 26.5867 28.8389 26.605 28.8372 26.6283L21.6122 29.7667C20.8855 30.0817 20.0522 30.0817 19.3255 29.7633L12.0539 26.755L19.3289 23.605H19.3305ZM23.8305 35.3217C23.8305 35.6533 23.6455 35.9467 23.3489 36.0833C21.6655 36.855 19.3272 36.855 17.6472 36.0833C17.3489 35.9467 17.1639 35.6533 17.1639 35.3217V32.4567L17.9939 32.8183C18.7822 33.1617 19.6272 33.3333 20.4739 33.3333C21.3155 33.3333 22.1572 33.1633 22.9422 32.8217L23.8305 32.435V35.3217ZM12.1639 7.5C12.1639 8.88 11.0439 10 9.66386 10C8.28386 10 7.16386 8.88 7.16386 7.5C7.16386 6.12 8.28386 5 9.66386 5C11.0439 5 12.1639 6.12 12.1639 7.5ZM18.8305 7.5C18.8305 8.88 17.7105 10 16.3305 10C14.9505 10 13.8305 8.88 13.8305 7.5C13.8305 6.12 14.9505 5 16.3305 5C17.7105 5 18.8305 6.12 18.8305 7.5ZM32.1639 0H8.83053C4.23553 0 0.497192 3.73833 0.497192 8.33333V28.3333C0.497192 32.9283 4.23553 36.6667 8.83053 36.6667C9.75053 36.6667 10.4972 35.9217 10.4972 35C10.4972 34.0783 9.75053 33.3333 8.83053 33.3333C6.07386 33.3333 3.83053 31.09 3.83053 28.3333V15H37.1639V28.3333C37.1639 29.5517 36.7205 30.7267 35.9155 31.6383C35.3072 32.3283 35.3722 33.3817 36.0639 33.99C36.7505 34.5983 37.8055 34.535 38.4155 33.8417C39.7589 32.3217 40.4972 30.3633 40.4972 28.3317V8.33333C40.4972 3.73833 36.7589 0 32.1639 0ZM3.83053 11.6667V8.33333C3.83053 5.57667 6.07386 3.33333 8.83053 3.33333H32.1639C34.9205 3.33333 37.1639 5.57667 37.1639 8.33333V11.6667H3.83053Z" fill="white"/>
</g>
<defs>
<clipPath id="clip0_1685_524">
<rect width="40" height="40" fill="white" transform="translate(0.497192)"/>
</clipPath>
</defs>
</svg>
