<svg width="50" height="54" viewBox="0 0 50 54" fill="none" xmlns="http://www.w3.org/2000/svg">
<path d="M50 26.6814C50 11.9457 38.8071 2.28882e-05 25 2.28882e-05C11.1929 2.28882e-05 0 11.9457 0 26.6814C0 39.9989 9.14214 51.0371 21.0938 53.0387V34.394H14.7461V26.6814H21.0938V20.8032C21.0938 14.1162 24.8261 10.4225 30.5366 10.4225C33.2718 10.4225 36.1328 10.9436 36.1328 10.9436V17.5097H32.9804C29.8748 17.5097 28.9062 19.5664 28.9062 21.6764V26.6814H35.8398L34.7314 34.394H28.9062V53.0387C40.8579 51.0371 50 39.9989 50 26.6814Z" fill="#1877F2"/>
</svg>
