<svg width="34" height="34" viewBox="0 0 34 34" fill="none" xmlns="http://www.w3.org/2000/svg">
<path d="M14.9163 33.6667C14.326 33.6667 13.8312 33.467 13.4319 33.0677C13.0326 32.6684 12.8329 32.1736 12.8329 31.5833V19.0833L0.749598 3.66668C0.228765 2.97223 0.15064 2.24307 0.515223 1.47918C0.879806 0.715288 1.51349 0.333344 2.41626 0.333344H31.5829C32.4857 0.333344 33.1194 0.715288 33.484 1.47918C33.8486 2.24307 33.7704 2.97223 33.2496 3.66668L21.1663 19.0833V31.5833C21.1663 32.1736 20.9666 32.6684 20.5673 33.0677C20.168 33.467 19.6732 33.6667 19.0829 33.6667H14.9163ZM16.9996 17.625L27.3121 4.50001H6.6871L16.9996 17.625Z" fill="black"/>
</svg>
