<svg width="50" height="50" viewBox="0 0 50 50" fill="none" xmlns="http://www.w3.org/2000/svg">
<path d="M47 25.5208C47 23.8958 46.8542 22.3333 46.5833 20.8333H25V29.6979H37.3333C36.8021 32.5625 35.1875 34.9896 32.7604 36.6146V42.3646H40.1667C44.5 38.375 47 32.5 47 25.5208Z" fill="#4285F4"/>
<path d="M24.9997 47.9167C31.1872 47.9167 36.3747 45.8646 40.1663 42.3646L32.7601 36.6146C30.708 37.9896 28.083 38.8021 24.9997 38.8021C19.0309 38.8021 13.9788 34.7708 12.1768 29.3542H4.52051V35.2917C8.29134 42.7812 16.0413 47.9167 24.9997 47.9167Z" fill="#34A853"/>
<path d="M12.1768 29.3542C11.7184 27.9792 11.458 26.5104 11.458 25C11.458 23.4896 11.7184 22.0208 12.1768 20.6458V14.7083H4.52051C2.91634 17.9018 2.08159 21.4263 2.08301 25C2.08301 28.6979 2.96843 32.1979 4.52051 35.2917L12.1768 29.3542Z" fill="#FBBC05"/>
<path d="M24.9997 11.1979C28.3643 11.1979 31.3851 12.3542 33.7601 14.625L40.333 8.05209C36.3643 4.35418 31.1768 2.08334 24.9997 2.08334C16.0413 2.08334 8.29134 7.21876 4.52051 14.7083L12.1768 20.6458C13.9788 15.2292 19.0309 11.1979 24.9997 11.1979Z" fill="#EA4335"/>
</svg>
