<svg width="164" height="165" viewBox="0 0 164 165" fill="none" xmlns="http://www.w3.org/2000/svg">
<g clip-path="url(#clip0_172_819)">
<path d="M164 82.5C164.01 91.5212 162.547 100.483 159.669 109.027C159.504 109.515 159.335 110.002 159.162 110.487C156.115 118.965 151.709 126.885 146.118 133.931C144.449 136.037 142.68 138.057 140.812 139.989C138.944 141.924 136.983 143.766 134.929 145.512C123.471 155.288 109.554 161.69 94.7099 164.014H94.7075C92.8152 164.309 90.9043 164.539 88.9748 164.705C86.6773 164.9 84.3524 164.998 81.9999 165C71.0602 165.014 60.229 162.819 50.148 158.545C40.067 154.27 30.9413 148.004 23.3117 140.116C22.7756 139.564 22.2475 139.004 21.7275 138.436C20.432 137.023 19.1858 135.566 17.989 134.065C17.317 133.22 16.6611 132.363 16.0215 131.492C12.0814 126.137 8.80316 120.319 6.2591 114.167C5.17418 111.547 4.22673 108.872 3.42065 106.152C3.36242 105.959 3.30662 105.766 3.25082 105.573C3.12952 105.158 3.01226 104.741 2.89905 104.321C0.969169 97.2101 -0.00586427 89.8712 -6.5843e-05 82.5C-6.5843e-05 36.9371 36.7131 0 81.9999 0C127.287 0 164 36.9371 164 82.5Z" fill="white"/>
<path d="M34.7767 49.3123C34.6498 50.0878 34.6934 50.8819 34.9044 51.6386C35.1155 52.3953 35.4889 53.0963 35.9984 53.6921C36.5079 54.2879 37.141 54.7641 37.8531 55.0871C38.5653 55.4101 39.3392 55.572 40.1203 55.5616L53.2098 93.8808L61.5619 88.1058L45.4388 49.7269C45.3343 48.4079 44.7526 47.1732 43.8038 46.2568C42.8549 45.3405 41.605 44.8061 40.2908 44.755C38.9765 44.7039 37.6893 45.1396 36.673 45.9796C35.6568 46.8195 34.982 48.0053 34.7767 49.3123Z" fill="#A0616A"/>
<path d="M103.096 62.2776C97.2829 68.9313 82.9499 80.657 71.1424 88.7313C68.5902 90.4765 66.1544 92.0484 63.9492 93.364C62.4596 94.2524 61.0743 95.0213 59.8273 95.6486C58.9904 96.0681 58.0764 96.3091 57.1426 96.3567C56.2087 96.4043 55.2752 96.2574 54.4004 95.9251C53.5256 95.5929 52.7285 95.0825 52.0588 94.4259C51.3892 93.7693 50.8616 92.9807 50.5089 92.1094L42.3332 72.2093L45.1619 70.3225L52.1368 65.6679L53.721 64.6134L60.2616 80.286L67.1588 74.716L71.4408 71.2574L90.9606 55.497L92.6443 54.9941L96.5721 58.8507L99.3499 61.5795L101.963 62.0359C102.353 62.1043 102.732 62.1848 103.096 62.2776Z" fill="#FFB8B8"/>
<path d="M155.247 116.956C155.652 117.473 156.072 117.988 156.491 118.505C155.046 121.492 153.42 124.387 151.625 127.175C151.491 127.08 151.358 126.985 151.224 126.89C151.203 126.878 151.183 126.865 151.164 126.851C150.667 126.494 150.167 126.143 149.669 125.786V125.784C149.259 124.379 149.03 122.927 148.988 121.464C149.244 121.405 149.476 121.267 149.653 121.071C149.829 120.874 149.941 120.628 149.974 120.365C150.007 120.103 149.958 119.836 149.835 119.602C149.712 119.368 149.52 119.178 149.286 119.057C149.221 118.942 149.174 118.859 149.109 118.742C149.111 118.713 149.116 118.681 149.119 118.652C149.5 115.603 153.362 114.539 155.247 116.956Z" fill="white"/>
<path d="M159.602 106.509C159.893 107.314 160.158 108.129 160.397 108.952C160.232 109.44 160.063 109.927 159.89 110.412C159.825 110.155 159.757 109.899 159.686 109.643C159.292 108.218 158.818 106.816 158.267 105.444C157.816 104.319 157.316 103.218 156.768 102.14C153.787 96.2831 149.466 91.2221 144.162 87.3725C141.97 86.8625 139.986 85.6886 138.478 84.0091C137.934 83.4056 137.479 82.7266 137.127 81.993C137.35 81.9612 137.573 81.9173 137.792 81.8709C137.859 81.8563 137.93 81.8392 137.998 81.8245L138.024 81.8197C138.263 81.764 138.481 81.6401 138.651 81.4629C138.821 81.2857 138.937 81.0628 138.985 80.8209C139.032 80.5791 139.009 80.3286 138.918 80.0996C138.828 79.8706 138.673 79.6729 138.473 79.5302C138.35 79.4398 138.223 79.352 138.1 79.2641C137.91 79.125 137.719 78.9932 137.527 78.8565C137.507 78.8438 137.487 78.83 137.469 78.815C137.251 78.6588 137.032 78.5075 136.816 78.3488C136.984 77.8049 137.273 77.3072 137.663 76.8941C139.019 75.4857 141.44 75.5175 143.022 76.6646C144.606 77.8118 145.402 79.8206 145.504 81.7782C145.594 83.455 145.235 85.1148 144.762 86.7331C144.88 86.8209 145.004 86.9039 145.123 86.9942C147.307 88.6228 149.327 90.4631 151.154 92.4885C150.099 89.9696 149.715 86.6842 149.99 84.4216C150.303 81.8441 151.547 79.3959 152.566 76.9575C153.786 74.0285 157.949 73.9895 159.124 76.938C159.136 76.9673 159.148 76.9941 159.158 77.0234C158.961 77.2211 158.772 77.4262 158.59 77.6385C158.361 77.9061 158.219 78.2368 158.18 78.5875C158.142 78.9381 158.209 79.2922 158.374 79.6035C158.539 79.9147 158.794 80.1687 159.104 80.332C159.415 80.4953 159.768 80.5604 160.116 80.5187L160.152 80.5138C160.304 81.384 160.39 82.2643 160.409 83.1475C160.44 85.6183 159.962 88.0687 159.007 90.3452C158.052 92.6217 156.639 94.6751 154.859 96.3768C154.742 96.4866 154.628 96.594 154.509 96.699C155.633 98.3069 156.643 99.9928 157.53 101.744C158.317 103.288 159.009 104.879 159.602 106.509Z" fill="white"/>
<path d="M112.856 83.6104L112.123 134.236L52.9374 132.527L62.3892 111.536C62.3213 110.862 66.5377 106.134 66.5135 105.434C66.4407 103.381 67.9643 101.48 68.2117 99.3318C68.7163 94.9017 65.8269 78.1722 67.1588 74.716C67.7262 73.1727 68.4531 71.6936 69.3277 70.303C70.0846 69.1509 70.861 68.3748 71.6033 68.0941L73.7916 62.9635L75.7324 60.0345L90.9606 55.497L92.6443 54.9941L96.5721 58.8507L99.3499 61.5795L101.963 62.0359C102.353 62.1043 102.732 62.1848 103.096 62.2776C104.848 62.6842 106.482 63.4984 107.865 64.6549C112.426 68.5529 112.958 75.8852 112.856 83.6104Z" fill="#FFB8B8"/>
<path d="M146.845 133.855C145.176 135.962 143.408 137.981 141.54 139.914L135.14 139.918L100.722 139.958L94.5256 139.965L90.4062 139.97L84.278 139.975L79.5643 139.979L70.8572 139.989L65.7213 139.997L54.906 140.006L49.7434 140.014L35.4371 140.028L26.4511 140.038L24.0396 140.041C23.5034 139.489 22.9754 138.929 22.4554 138.361C21.1599 136.948 19.9137 135.491 18.7169 133.99L23.7097 133.985L27.1109 133.982L34.9859 133.973L50.1825 133.958L55.3185 133.953L57.3951 133.951H57.4024L59.0327 133.948L59.763 133.946L61.6334 133.943H62.4243L67.9702 133.938L79.933 133.924L85.1975 133.919L90.2388 133.914L94.9647 133.909L101.745 133.902L137.961 133.865L146.845 133.855Z" fill="#CCCCCC"/>
<path d="M64.9609 57.8407L64.9477 57.842C64.2479 57.9075 63.5508 57.6907 63.0098 57.2391C62.4689 56.7875 62.1284 56.1382 62.0633 55.4341L60.6837 40.6184C60.4339 37.9642 60.7172 35.2867 61.5166 32.7449C63.0835 27.784 66.4927 23.6228 71.0339 21.1286C73.3787 19.8441 75.9577 19.0506 78.6155 18.7958C89.4889 17.7536 93.4625 20.032 100.179 36.7167C106.896 53.4014 101.561 51.555 101.561 51.555C101.595 51.912 101.556 52.2723 101.449 52.6142C101.237 53.2812 100.778 53.8403 100.166 54.1746C99.8527 54.3458 99.508 54.4517 99.1527 54.4862C86.298 57.7736 73.3272 61.2341 64.9587 57.841L64.9609 57.8407Z" fill="#2F2E41"/>
<path d="M88.8869 32.8341C90.5005 35.2361 91.3704 38.0654 91.3868 40.9646C91.4031 43.8638 90.5652 46.7028 88.9787 49.1231C87.3923 51.5434 85.1286 53.4365 82.4734 54.5631C79.8183 55.6898 76.8908 55.9996 74.0607 55.4533C72.1874 55.0979 70.4027 54.3719 68.8102 53.3175C67.2176 52.2632 65.8489 50.9013 64.7832 49.3109C63.173 46.9097 62.3055 44.0825 62.29 41.1859C62.2746 38.2893 63.1119 35.4529 64.6964 33.0344C66.281 30.6159 68.5417 28.7236 71.1937 27.596C73.8457 26.4684 76.7702 26.156 79.5984 26.6983C81.4733 27.0516 83.2598 27.776 84.8543 28.8294C86.4487 29.8828 87.8195 31.2442 88.887 32.8346L88.8869 32.8341Z" fill="#9E616A"/>
<path d="M56.1253 42.2646C55.928 40.1655 56.152 38.0478 56.7842 36.0376C56.9308 31.12 58.3489 26.6658 64.3104 26.8528C66.1532 25.8442 68.1788 25.2188 70.2668 25.0139L73.2127 24.7212C73.2458 24.7179 73.2789 24.7147 73.312 24.7116C75.3531 24.5205 77.4115 24.7357 79.3699 25.345C81.3282 25.9543 83.1481 26.9456 84.7257 28.2625C86.3032 29.5794 87.6075 31.196 88.5641 33.02C89.5206 34.8441 90.1107 36.8398 90.3007 38.8933L90.3283 39.19L84.0956 39.8031L81.4131 34.0276L81.5455 40.0551L78.3263 40.373L76.9736 37.4591L77.0396 40.4982C72.26 44.7334 65.0122 44.9553 56.1558 42.5616L56.1253 42.2646Z" fill="#2F2E41"/>
<path d="M76.0623 56.3235C76.0093 56.8116 76.0934 57.305 76.3053 57.7474C76.412 57.974 76.5498 58.1844 76.7146 58.3725C76.8556 58.5327 77.0149 58.6756 77.1892 58.7982C77.7056 59.1599 78.3331 59.3246 78.9593 59.2628C78.9983 59.2588 79.0372 59.254 79.076 59.2485C79.1149 59.243 79.1537 59.2365 79.1924 59.2292C79.2315 59.2222 79.2703 59.2141 79.3088 59.2049C79.3473 59.1957 79.386 59.1858 79.4247 59.1751L81.6 58.5618L84.038 51.7228L84.5968 57.724L94.4885 54.9532L92.117 29.4868L75.2574 31.1582L75.7197 31.6062C77.2561 33.1106 78.35 35.0123 78.8813 37.1021C79.4086 39.2196 79.5713 41.4125 79.3625 43.5854C79.1674 45.7825 78.763 47.9558 78.155 50.0752C77.6258 51.9519 76.9895 53.7963 76.2493 55.5994C76.1536 55.8308 76.0907 56.0745 76.0623 56.3235Z" fill="#2F2E41"/>
<path d="M78.3104 136.615C78.0206 136.615 77.7344 136.55 77.4726 136.425L30.7666 137.623C30.4082 137.453 30.1097 137.177 29.9106 136.831C29.7114 136.486 29.621 136.089 29.6512 135.691C29.6815 135.293 29.8309 134.914 30.0799 134.603C30.3288 134.293 30.6656 134.065 31.0456 133.951L61.602 124.785C61.9184 124.69 62.2535 124.677 62.5763 124.747L109.842 130.543C110.26 130.634 110.637 130.86 110.916 131.187C111.194 131.514 111.359 131.924 111.384 132.353C111.41 132.783 111.295 133.21 111.057 133.567C110.819 133.925 110.471 134.195 110.066 134.335L78.9504 136.507C78.7446 136.578 78.5283 136.615 78.3104 136.615Z" fill="#3F3D56"/>
<path d="M80.0282 133.344C79.8173 133.344 79.6099 133.29 79.4258 133.187L41.4937 134.969C41.2783 134.848 41.1043 134.664 40.9943 134.441C40.8843 134.219 40.8435 133.968 40.8771 133.722C40.9107 133.476 41.0172 133.246 41.1827 133.061C41.3482 132.877 41.5651 132.747 41.8051 132.688L55.5373 129.335C55.7517 129.283 55.976 129.29 56.1869 129.354L91.4501 129.312C91.7012 129.389 91.9211 129.545 92.0776 129.757C92.2341 129.969 92.319 130.226 92.3199 130.49C92.3208 130.754 92.2377 131.012 92.0827 131.225C91.9277 131.438 91.7089 131.596 91.4584 131.675L80.3951 133.288C80.2764 133.325 80.1527 133.344 80.0282 133.344Z" fill="#2F2E41"/>
<path d="M76.0355 131.31C76.6921 131.736 77.4335 132.012 78.2075 132.118C78.9815 132.225 79.7692 132.159 80.5153 131.926C81.2614 131.693 81.9476 131.298 82.5256 130.77C83.1036 130.241 83.5593 129.591 83.8607 128.866L124.011 132.039L122.07 122.032L80.6579 121.635C79.4136 121.206 78.0562 121.252 76.843 121.762C75.6298 122.273 74.645 123.214 74.0752 124.407C73.5055 125.6 73.3903 126.961 73.7516 128.233C74.1129 129.506 74.9256 130.6 76.0355 131.31Z" fill="#A0616A"/>
<path d="M99.7502 66.1364C99.7502 66.1364 105.815 61.2548 113.093 70.0418C118.002 75.9676 127.47 111.791 128.255 126.635C128.305 127.575 128.161 128.514 127.833 129.395C127.505 130.276 126.999 131.079 126.348 131.754C125.697 132.429 124.914 132.962 124.049 133.318C123.184 133.675 122.255 133.848 121.32 133.826L99.92 133.451L97.527 119.917L114.423 120.118L99.7502 66.1364Z" fill="#FFB8B8"/>
<path d="M75.7127 136.621C74.9785 136.62 74.2519 136.472 73.5753 136.185L30.2846 137.179C29.1421 136.7 28.1937 135.847 27.5927 134.758C26.9918 133.669 26.7734 132.408 26.9728 131.179L25.3643 92.9286C25.5776 91.5623 26.2923 90.3262 27.3674 89.4642C28.4424 88.6023 29.7996 88.1773 31.171 88.273L71.3615 89.9501C72.1329 90.001 72.8852 90.2145 73.5694 90.5767C74.2535 90.9389 74.8544 91.4417 75.333 92.0526C75.8116 92.6635 76.1572 93.3688 76.3475 94.1227C76.5377 94.8766 76.5683 95.6624 76.4373 96.429L81.1461 132.009C80.9247 133.298 80.2584 134.467 79.2646 135.311C78.2707 136.154 77.013 136.618 75.7127 136.621Z" fill="#3F3D56"/>
<path d="M42.8402 22.7412L24.7735 22.6899C24.2893 22.6894 23.8245 22.882 23.4812 23.2256C23.1378 23.5692 22.9439 24.0358 22.9419 24.523L22.8764 48.592C22.8754 49.0787 23.0664 49.546 23.4076 49.8911C23.7488 50.2361 24.2121 50.4308 24.6959 50.4324L34.7179 50.4617L42.765 50.4837C43.2492 50.4846 43.7139 50.2919 44.0569 49.9482C44.3999 49.6044 44.5932 49.1377 44.5943 48.6506L44.5991 47.2276L44.6622 24.584C44.6632 24.0967 44.4718 23.6288 44.1302 23.2833C43.7886 22.9378 43.3246 22.7428 42.8402 22.7412Z" fill="#E6E6E6"/>
<path d="M41.5666 24.1787L26.0399 24.1348C25.5865 24.1342 25.1514 24.3145 24.8299 24.6361C24.5084 24.9578 24.3267 25.3945 24.3247 25.8507L24.2811 41.3255C24.278 43.3578 25.0763 45.3083 26.5007 46.7492C27.9252 48.1901 29.8595 49.0037 31.8794 49.0117L34.8295 49.019L41.4986 49.0385C41.9522 49.0395 42.3875 48.8594 42.7091 48.5377C43.0307 48.2159 43.2123 47.7789 43.2138 47.3226L43.2187 45.7654L43.2721 25.9044C43.273 25.4481 43.094 25.0101 42.7742 24.6865C42.4544 24.3629 42.0201 24.1803 41.5666 24.1787Z" fill="white"/>
<path d="M39.8222 34.7524H27.7163C27.6209 34.7524 27.5264 34.7714 27.4383 34.8081C27.3501 34.8448 27.27 34.8987 27.2025 34.9666C27.1351 35.0344 27.0816 35.115 27.045 35.2037C27.0085 35.2924 26.9897 35.3875 26.9897 35.4835C26.9897 35.5795 27.0085 35.6745 27.045 35.7632C27.0816 35.8519 27.1351 35.9325 27.2025 36.0004C27.27 36.0683 27.3501 36.1221 27.4383 36.1589C27.5264 36.1956 27.6209 36.2145 27.7163 36.2145H39.8222C40.0149 36.2145 40.1998 36.1375 40.336 36.0004C40.4723 35.8633 40.5488 35.6773 40.5488 35.4835C40.5488 35.2896 40.4723 35.1036 40.336 34.9666C40.1998 34.8295 40.0149 34.7524 39.8222 34.7524Z" fill="#FFB8B8"/>
<path d="M30.3777 30.7446H27.7163C27.5236 30.7446 27.3388 30.8216 27.2025 30.9587C27.0663 31.0958 26.9897 31.2818 26.9897 31.4757C26.9897 31.6695 27.0663 31.8555 27.2025 31.9926C27.3388 32.1297 27.5236 32.2067 27.7163 32.2067H30.3777C30.5704 32.2067 30.7552 32.1297 30.8915 31.9926C31.0277 31.8555 31.1043 31.6695 31.1043 31.4757C31.1043 31.2818 31.0277 31.0958 30.8915 30.9587C30.7552 30.8216 30.5704 30.7446 30.3777 30.7446Z" fill="#FFB8B8"/>
<path d="M39.8222 41.1792H27.7163C27.5236 41.1792 27.3388 41.2562 27.2025 41.3933C27.0663 41.5304 26.9897 41.7163 26.9897 41.9102C26.9897 42.1041 27.0663 42.29 27.2025 42.4271C27.3388 42.5642 27.5236 42.6413 27.7163 42.6413H39.8222C40.0149 42.6413 40.1998 42.5642 40.336 42.4271C40.4723 42.29 40.5488 42.1041 40.5488 41.9102C40.5488 41.7163 40.4723 41.5304 40.336 41.3933C40.1998 41.2562 40.0149 41.1792 39.8222 41.1792Z" fill="#FFB8B8"/>
<path d="M39.8222 37.9673H27.7163C27.5239 37.9673 27.3394 38.0442 27.2034 38.181C27.0674 38.3179 26.9909 38.5035 26.9909 38.6971C26.9909 38.8906 27.0674 39.0763 27.2034 39.2131C27.3394 39.35 27.5239 39.4269 27.7163 39.4269H39.8222C40.0146 39.4269 40.1991 39.35 40.3352 39.2131C40.4712 39.0763 40.5476 38.8906 40.5476 38.6971C40.5476 38.5035 40.4712 38.3179 40.3352 38.181C40.1991 38.0442 40.0146 37.9673 39.8222 37.9673Z" fill="#FFB8B8"/>
<path d="M37.4699 33.3297C36.6198 33.3297 35.7888 33.0761 35.082 32.6009C34.3752 32.1258 33.8243 31.4504 33.499 30.6603C33.1737 29.8701 33.0886 29.0006 33.2544 28.1618C33.4202 27.323 33.8296 26.5525 34.4307 25.9477C35.0318 25.3429 35.7976 24.9311 36.6314 24.7642C37.4651 24.5974 38.3293 24.683 39.1147 25.0103C39.9 25.3376 40.5713 25.8919 41.0436 26.603C41.5159 27.3141 41.7679 28.1502 41.7679 29.0054C41.7666 30.1519 41.3134 31.251 40.5076 32.0617C39.7019 32.8724 38.6094 33.3284 37.4699 33.3297ZM37.4699 24.9817C36.6789 24.9817 35.9056 25.2176 35.2479 25.6598C34.5902 26.1019 34.0776 26.7303 33.7749 27.4656C33.4722 28.2008 33.393 29.0099 33.5473 29.7904C33.7016 30.571 34.0825 31.2879 34.6419 31.8507C35.2012 32.4134 35.9138 32.7966 36.6896 32.9519C37.4654 33.1071 38.2696 33.0275 39.0003 32.7229C39.7311 32.4184 40.3558 31.9026 40.7952 31.2409C41.2347 30.5792 41.4692 29.8013 41.4692 29.0054C41.468 27.9386 41.0463 26.9159 40.2965 26.1615C39.5468 25.4072 38.5302 24.9829 37.4699 24.9817Z" fill="#FFB8B8"/>
<path d="M39.2749 30.6803C38.9781 29.1382 38.3597 27.6769 37.4607 26.3927C37.4404 26.3594 37.412 26.3319 37.3781 26.3128C37.3443 26.2937 37.3061 26.2837 37.2673 26.2837C37.2285 26.2837 37.1903 26.2937 37.1564 26.3128C37.1226 26.3319 37.0941 26.3594 37.0739 26.3927C36.2909 27.7705 35.7904 29.2923 35.602 30.8681C35.5672 31.1554 36.0155 31.1529 36.05 30.8681C36.113 30.3574 36.2111 29.8518 36.3437 29.3548C36.3609 29.3514 36.3777 29.3462 36.3938 29.3394C36.9895 29.0384 37.6626 28.9282 38.3224 29.0234C38.3282 29.0242 38.3337 29.023 38.3395 29.0235C38.5574 29.6002 38.7258 30.1945 38.8429 30.8001C38.8976 31.0846 39.3295 30.9641 39.2749 30.6803ZM36.505 28.802C36.7107 28.1601 36.9725 27.5379 37.2873 26.9425C37.6206 27.4548 37.91 27.9947 38.1524 28.5564C37.592 28.514 37.0292 28.5979 36.505 28.802Z" fill="#FFB8B8"/>
</g>
<defs>
<clipPath id="clip0_172_819">
<rect width="164" height="165" fill="white"/>
</clipPath>
</defs>
</svg>
