<svg width="45" height="45" viewBox="0 0 45 45" fill="none" xmlns="http://www.w3.org/2000/svg">
<rect width="45" height="45" rx="10" fill="#F7DF1E"/>
<path d="M26.6883 27.2319C27.0715 28.0093 27.6663 28.6628 28.4043 29.1172C29.1423 29.5716 29.9936 29.8085 30.8602 29.8007C32.6114 29.8007 33.7308 28.9251 33.7308 27.7138C33.7308 26.2644 32.5814 25.7507 30.6521 24.9013L29.5946 24.4476C26.5439 23.1482 24.5171 21.5188 24.5171 18.0726C24.5226 17.2886 24.6913 16.5144 25.0122 15.7991C25.3332 15.0838 25.7994 14.4432 26.3814 13.9178C26.9633 13.3925 27.6482 12.994 28.3925 12.7477C29.1367 12.5013 29.9241 12.4125 30.7046 12.4869C31.9312 12.3986 33.1566 12.6741 34.2273 13.2792C35.2979 13.8842 36.1662 14.7918 36.7233 15.8882L33.4308 18.0013C33.2147 17.459 32.8387 16.9952 32.3528 16.6717C31.8668 16.3482 31.2939 16.1802 30.7102 16.1901C30.4559 16.1645 30.1991 16.1922 29.9561 16.2714C29.7131 16.3505 29.4893 16.4794 29.2988 16.6497C29.1083 16.8201 28.9554 17.0283 28.8498 17.261C28.7441 17.4936 28.6881 17.7458 28.6852 18.0013C28.6852 19.2707 29.4708 19.7844 31.2858 20.5701L32.3433 21.0219C35.9358 22.5632 37.9683 24.1344 37.9683 27.6651C37.9683 31.4732 34.9777 33.5582 30.9614 33.5582C29.3967 33.658 27.8365 33.3028 26.4691 32.5356C25.1017 31.7684 23.9855 30.6219 23.2552 29.2344L26.6883 27.2319ZM11.7502 27.6069C12.4139 28.7844 13.0196 29.7819 14.4708 29.7819C15.8602 29.7819 16.7377 29.2382 16.7377 27.1232V12.7382H20.9658V27.1757C21.0655 28.0317 20.9713 28.8993 20.6901 29.7139C20.4089 30.5286 19.9479 31.2696 19.3414 31.8819C18.7349 32.4941 17.9983 32.9621 17.1864 33.251C16.3744 33.5399 15.5078 33.6423 14.6508 33.5507C13.3271 33.6229 12.0126 33.2925 10.8803 32.603C9.74805 31.9136 8.85114 30.8973 8.30769 29.6882L11.7502 27.6069Z" fill="black"/>
</svg>
