<svg width="60" height="60" viewBox="0 0 60 60" fill="none" xmlns="http://www.w3.org/2000/svg">
<rect width="60" height="60" rx="10" fill="#F7DF1E"/>
<path d="M40.3054 46.875C40.8163 47.9115 41.6093 48.7827 42.5933 49.3886C43.5773 49.9945 44.7123 50.3104 45.8679 50.3C48.2029 50.3 49.6954 49.1325 49.6954 47.5175C49.6954 45.585 48.1628 44.9 45.5904 43.7675L44.1804 43.1625C40.1129 41.43 37.4104 39.2575 37.4104 34.6625C37.4178 33.6172 37.6426 32.5849 38.0705 31.6312C38.4985 30.6775 39.1202 29.8233 39.8961 29.1229C40.672 28.4224 41.5852 27.8911 42.5775 27.5626C43.5699 27.2342 44.6198 27.1158 45.6604 27.215C47.2958 27.0971 48.9297 27.4646 50.3573 28.2713C51.7848 29.0781 52.9426 30.2882 53.6854 31.75L49.2954 34.5675C49.0072 33.8444 48.5059 33.2261 47.858 32.7947C47.21 32.3633 46.4461 32.1393 45.6679 32.1525C45.3288 32.1185 44.9864 32.1554 44.6624 32.2609C44.3384 32.3664 44.04 32.5382 43.786 32.7654C43.532 32.9926 43.3281 33.2701 43.1873 33.5804C43.0464 33.8906 42.9717 34.2268 42.9679 34.5675C42.9679 36.26 44.0154 36.945 46.4353 37.9925L47.8454 38.595C52.6354 40.65 55.3454 42.745 55.3454 47.4525C55.3454 52.53 51.3578 55.31 46.0028 55.31C43.9165 55.443 41.8363 54.9695 40.0131 53.9466C38.1898 52.9236 36.7016 51.395 35.7279 49.545L40.3054 46.875ZM20.3879 47.375C21.2729 48.945 22.0804 50.275 24.0154 50.275C25.8679 50.275 27.0379 49.55 27.0379 46.73V27.55H32.6754V46.8C32.8083 47.9414 32.6826 49.0981 32.3077 50.1843C31.9328 51.2706 31.3182 52.2585 30.5095 53.0749C29.7008 53.8913 28.7187 54.5152 27.6361 54.9004C26.5534 55.2856 25.398 55.4221 24.2554 55.3C22.4904 55.3963 20.7377 54.9557 19.228 54.0365C17.7183 53.1172 16.5225 51.7622 15.7979 50.15L20.3879 47.375Z" fill="black"/>
</svg>
