<svg width="20" height="20" viewBox="0 0 20 20" fill="none" xmlns="http://www.w3.org/2000/svg">
<g clip-path="url(#clip0_1410_178)">
<path d="M6.57966 13.42C6.09133 12.9325 6.09133 12.14 6.57966 11.6525C7.068 11.1642 7.85883 11.1642 8.34716 11.6525C9.45216 12.7575 11.3805 12.7583 12.4855 11.6525L16.643 7.495C17.7838 6.35417 17.7838 4.4975 16.643 3.35667C15.5022 2.21583 13.6455 2.21583 12.5047 3.35667C12.0163 3.845 11.2255 3.845 10.7372 3.35667C10.2488 2.86917 10.2488 2.07667 10.7372 1.58917C12.8522 -0.526666 16.2955 -0.526666 18.4105 1.58917C20.5263 3.705 20.5263 7.14667 18.4105 9.2625L14.253 13.42C13.1947 14.4783 11.8055 15.0067 10.4163 15.0067C9.02716 15.0067 7.63716 14.4775 6.57966 13.42ZM5.42633 19.9975C6.8155 19.9975 8.20466 19.4683 9.263 18.4108C9.75133 17.9233 9.75133 17.1308 9.263 16.6433C8.77466 16.155 7.98383 16.155 7.4955 16.6433C6.35383 17.785 4.49716 17.7842 3.35716 16.6433C2.21633 15.5025 2.21633 13.6458 3.35716 12.505L7.49133 8.37083C8.63299 7.22917 10.4897 7.22917 11.6297 8.37083C12.118 8.85917 12.9088 8.85917 13.3972 8.37083C13.8855 7.88333 13.8855 7.09083 13.3972 6.60333C11.2813 4.4875 7.83966 4.4875 5.72383 6.60333L1.58883 10.7375C-0.527005 12.8533 -0.527005 16.295 1.58883 18.4108C2.64716 19.4692 4.03716 19.9975 5.42633 19.9975Z" fill="white"/>
</g>
<defs>
<clipPath id="clip0_1410_178">
<rect width="20" height="20" fill="white"/>
</clipPath>
</defs>
</svg>
