<svg width="20" height="20" viewBox="0 0 20 20" fill="none" xmlns="http://www.w3.org/2000/svg">
<g clip-path="url(#clip0_354_978)">
<path d="M18.125 0.468822H1.875C1.5063 0.46507 1.15117 0.607735 0.887529 0.865514C0.623892 1.12329 0.473283 1.47513 0.46875 1.84382V18.1594C0.474103 18.5276 0.625072 18.8786 0.88862 19.1357C1.15217 19.3928 1.50683 19.5351 1.875 19.5313H18.125C18.4937 19.5342 18.8486 19.3911 19.1121 19.1332C19.3756 18.8752 19.5263 18.5235 19.5312 18.1548V1.83913C19.5247 1.47152 19.3733 1.12136 19.1099 0.864769C18.8466 0.608173 18.4927 0.465881 18.125 0.468822ZM6.12031 16.7188H3.29062V7.61413H6.12031V16.7188ZM4.71406 6.37351C4.38951 6.37382 4.07216 6.27786 3.80215 6.09777C3.53215 5.91769 3.32162 5.66157 3.19721 5.36181C3.07279 5.06205 3.04008 4.73213 3.10321 4.41377C3.16634 4.09542 3.32247 3.80294 3.55185 3.57334C3.78123 3.34374 4.07356 3.18733 4.39185 3.1239C4.71015 3.06047 5.0401 3.09287 5.33998 3.217C5.63985 3.34112 5.89618 3.55141 6.07652 3.82124C6.25686 4.09107 6.35312 4.40833 6.35313 4.73288C6.35272 4.9486 6.30977 5.16211 6.22675 5.36121C6.14372 5.56031 6.02225 5.74108 5.86928 5.89318C5.71632 6.04527 5.53486 6.16571 5.33529 6.2476C5.13572 6.32948 4.92196 6.37121 4.70625 6.37038L4.71406 6.37351ZM16.7188 16.7188H13.8891V12.2891C13.8891 11.2344 13.8703 9.87663 12.4188 9.87663C10.9672 9.87663 10.7203 11.0266 10.7203 12.2204V16.7188H7.89531V7.61413H10.6078V8.86413H10.6453C11.0234 8.14851 11.9453 7.39382 13.3219 7.39382C16.1875 7.38757 16.7188 9.27351 16.7188 11.7188V16.7188Z" fill="white"/>
</g>
<defs>
<clipPath id="clip0_354_978">
<rect width="20" height="20" fill="white"/>
</clipPath>
</defs>
</svg>
