<svg width="56" height="67" viewBox="0 0 56 67" fill="none" xmlns="http://www.w3.org/2000/svg">
<path d="M47.2221 23.5738V19.6182C47.2221 8.87936 38.5167 0.173767 27.7777 0.173767C17.0388 0.173767 8.33333 8.87936 8.33333 19.6182V23.5738C3.27786 25.7801 0.00729167 30.7689 0 36.2848V52.9515C0.00911458 60.6183 6.222 66.8313 13.8888 66.8404H41.6665C49.3333 66.8313 55.5462 60.6183 55.5555 52.9515V36.2848C55.5483 30.7689 52.2776 25.7801 47.2221 23.5738ZM30.5555 47.396C30.5555 48.9301 29.3118 50.1738 27.7777 50.1738C26.2436 50.1738 25 48.9301 25 47.396V41.8404C25 40.3063 26.2436 39.0627 27.7777 39.0627C29.3118 39.0627 30.5555 40.3063 30.5555 41.8404V47.396ZM41.6667 22.396H13.8888V19.6183C13.8888 11.9477 20.107 5.72937 27.7777 5.72937C35.4484 5.72937 41.6667 11.9476 41.6667 19.6183V22.396Z" fill="white"/>
</svg>
