<svg width="25" height="25" viewBox="0 0 25 25" fill="none" xmlns="http://www.w3.org/2000/svg">
<path d="M21.5625 11H1.4375C0.643596 11 0 11.6716 0 12.5C0 13.3284 0.643596 14 1.4375 14H21.5625C22.3564 14 23 13.3284 23 12.5C23 11.6716 22.3564 11 21.5625 11Z" fill="#E62727"/>
<path d="M1.5625 6.77084H23.4375C24.3004 6.77084 25 6.07128 25 5.20834C25 4.3454 24.3004 3.64584 23.4375 3.64584H1.5625C0.699561 3.64584 0 4.3454 0 5.20834C0 6.07128 0.699561 6.77084 1.5625 6.77084Z" fill="#E62727"/>
<path d="M18.75 18H1.25C0.559648 18 0 18.6716 0 19.5C0 20.3284 0.559648 21 1.25 21H18.75C19.4404 21 20 20.3284 20 19.5C20 18.6716 19.4404 18 18.75 18Z" fill="#E62727"/>
</svg>
