<svg width="20" height="20" viewBox="0 0 20 20" fill="none" xmlns="http://www.w3.org/2000/svg">
<path d="M17.5 10C17.5 14.1421 14.1421 17.5 10 17.5C5.85786 17.5 2.5 14.1421 2.5 10C2.5 5.85786 5.85786 2.5 10 2.5C14.1421 2.5 17.5 5.85786 17.5 10ZM3.78725 10C3.78725 13.4312 6.56879 16.2128 10 16.2128C13.4312 16.2128 16.2128 13.4312 16.2128 10C16.2128 6.56879 13.4312 3.78725 10 3.78725C6.56879 3.78725 3.78725 6.56879 3.78725 10Z" fill="#657ED4"/>
<path d="M9.16699 10.8334H4.16699V9.16669H9.16699V4.16669H10.8337V9.16669H15.8337V10.8334H10.8337V15.8334H9.16699V10.8334Z" fill="black"/>
</svg>
