<svg width="50" height="50" viewBox="0 0 50 50" fill="none" xmlns="http://www.w3.org/2000/svg">
<g clip-path="url(#clip0_1212_212)">
<path d="M24.7999 33.3333C26.5249 33.3333 27.9249 34.7333 27.9249 36.4583C27.9249 38.1833 26.5249 39.5833 24.7999 39.5833C23.0749 39.5833 21.6749 38.1833 21.6749 36.4583C21.6749 34.7333 23.0749 33.3333 24.7999 33.3333ZM26.8833 29.1667C26.8833 27.9979 27.7333 26.6146 28.8166 26.0167C31.9416 24.2958 33.6229 20.7604 33.002 17.2188C32.4124 13.8583 29.6541 11.0979 26.2916 10.5083C23.8291 10.0833 21.3333 10.7417 19.4395 12.3292C17.5499 13.9188 16.4645 16.2438 16.4645 18.7104C16.4645 19.8625 17.3979 20.7938 18.5479 20.7938C19.6979 20.7938 20.6312 19.8625 20.6312 18.7104C20.6312 17.4771 21.1729 16.3146 22.1187 15.5188C23.0791 14.7146 24.3104 14.3896 25.5708 14.6125C27.2104 14.9 28.6083 16.3 28.8958 17.9375C29.2145 19.7521 28.3937 21.4896 26.8041 22.3646C24.3958 23.6917 22.7145 26.4875 22.7145 29.1646C22.7145 30.3167 23.6479 31.2479 24.7979 31.2479C25.9479 31.2479 26.8812 30.3167 26.8812 29.1646L26.8833 29.1667ZM49.9999 39.5833V25.7083C49.9999 12.2104 39.7833 0.945843 26.7416 0.0583431C19.502 -0.420824 12.4187 2.22084 7.31036 7.33543C2.20203 12.4521 -0.439641 19.5375 0.0624426 26.7792C0.979109 40.0167 12.6708 50 27.2583 50H39.5854C45.3291 50 49.9999 45.3271 49.9999 39.5833ZM26.4604 4.21668C37.3249 4.95418 45.8333 14.3938 45.8333 25.7063V39.5813C45.8333 43.0271 43.0291 45.8313 39.5833 45.8313H27.2562C14.6833 45.8313 4.99369 37.6979 4.21661 26.4896C3.79786 20.45 5.99786 14.5417 10.2562 10.2792C14.177 6.35209 19.4958 4.16668 25.0312 4.16668C25.5062 4.16668 25.9833 4.18334 26.4583 4.21459L26.4604 4.21668Z" fill="black"/>
</g>
<defs>
<clipPath id="clip0_1212_212">
<rect width="50" height="50" fill="white"/>
</clipPath>
</defs>
</svg>
