<svg width="40" height="40" viewBox="0 0 40 40" fill="none" xmlns="http://www.w3.org/2000/svg">
<path d="M36.8889 40L22.8889 26C21.7778 26.8889 20.5 27.5926 19.0556 28.1111C17.6111 28.6296 16.0741 28.8889 14.4444 28.8889C10.4074 28.8889 6.99074 27.4907 4.19444 24.6944C1.39815 21.8981 0 18.4815 0 14.4444C0 10.4074 1.39815 6.99074 4.19444 4.19444C6.99074 1.39815 10.4074 0 14.4444 0C18.4815 0 21.8981 1.39815 24.6944 4.19444C27.4907 6.99074 28.8889 10.4074 28.8889 14.4444C28.8889 16.0741 28.6296 17.6111 28.1111 19.0556C27.5926 20.5 26.8889 21.7778 26 22.8889L40 36.8889L36.8889 40ZM14.4444 24.4444C17.2222 24.4444 19.5833 23.4722 21.5278 21.5278C23.4722 19.5833 24.4444 17.2222 24.4444 14.4444C24.4444 11.6667 23.4722 9.30556 21.5278 7.36111C19.5833 5.41667 17.2222 4.44444 14.4444 4.44444C11.6667 4.44444 9.30556 5.41667 7.36111 7.36111C5.41667 9.30556 4.44444 11.6667 4.44444 14.4444C4.44444 17.2222 5.41667 19.5833 7.36111 21.5278C9.30556 23.4722 11.6667 24.4444 14.4444 24.4444Z" fill="white"/>
</svg>
