<svg width="50" height="50" viewBox="0 0 50 50" fill="none" xmlns="http://www.w3.org/2000/svg">
<path d="M2.76425 25.8333L10.1809 31.25L7.36425 39.9729C6.90907 41.3258 6.9033 42.7896 7.34781 44.146C7.79232 45.5025 8.66331 46.6789 9.83092 47.5C10.9785 48.3475 12.3692 48.8015 13.7958 48.7943C15.2224 48.7872 16.6085 48.3193 17.7476 47.4604L24.9997 42.1229L32.2538 47.4542C33.3994 48.2968 34.7826 48.7544 36.2046 48.7614C37.6266 48.7683 39.0142 48.3241 40.1679 47.4927C41.3216 46.6613 42.182 45.4855 42.6253 44.1343C43.0686 42.7831 43.072 41.3262 42.6351 39.9729L39.8184 31.25L47.2351 25.8333C48.3791 24.9969 49.2296 23.8203 49.665 22.4716C50.1004 21.123 50.0984 19.6712 49.6594 18.3237C49.2204 16.9762 48.3668 15.8019 47.2205 14.9686C46.0743 14.1352 44.694 13.6854 43.2768 13.6833H34.1663L31.4018 5.06667C30.967 3.71033 30.1127 2.52711 28.9621 1.68763C27.8115 0.848159 26.424 0.395805 24.9997 0.395805C23.5754 0.395805 22.1879 0.848159 21.0372 1.68763C19.8866 2.52711 19.0323 3.71033 18.5976 5.06667L15.833 13.6833H6.73092C5.31372 13.6854 3.9334 14.1352 2.78713 14.9686C1.64085 15.8019 0.787254 16.9762 0.348256 18.3237C-0.0907429 19.6712 -0.092686 21.123 0.342704 22.4716C0.778094 23.8203 1.62855 24.9969 2.77259 25.8333H2.76425Z" fill="#FBBC05"/>
</svg>
