<svg width="81" height="81" viewBox="0 0 81 81" fill="none" xmlns="http://www.w3.org/2000/svg">
<circle cx="40.5" cy="40.5" r="37.5" fill="#F7DF1E" fill-opacity="0.5" stroke="#D58936" stroke-width="5" stroke-linecap="round" stroke-linejoin="bevel" stroke-dasharray="10 10"/>
<path d="M37.2396 21.4858C38.2753 19.0522 41.7247 19.0522 42.7604 21.4858L45.2415 27.3152C45.7648 28.5448 47.0382 29.28 48.3646 29.1184L54.6536 28.3523C57.279 28.0325 59.0036 31.0197 57.414 33.1334L53.6061 38.1969C52.8029 39.2648 52.8029 40.7352 53.6061 41.8031L57.414 46.8665C59.0036 48.9803 57.279 51.9675 54.6536 51.6477L48.3646 50.8816C47.0382 50.72 45.7648 51.4552 45.2415 52.6848L42.7604 58.5142C41.7247 60.9478 38.2753 60.9478 37.2396 58.5142L34.7585 52.6848C34.2352 51.4552 32.9618 50.72 31.6354 50.8816L25.3464 51.6477C22.721 51.9675 20.9964 48.9803 22.586 46.8666L26.3939 41.8031C27.1971 40.7352 27.1971 39.2648 26.3939 38.1969L22.586 33.1335C20.9964 31.0197 22.721 28.0325 25.3464 28.3523L31.6354 29.1184C32.9618 29.28 34.2352 28.5448 34.7585 27.3152L37.2396 21.4858Z" fill="#FBBC05"/>
<path d="M33.5556 46.1111H34.4444V47H33.5556V46.1111ZM34.4444 46.1111H35.3333V47H34.4444V46.1111ZM35.3333 46.1111H36.2222V47H35.3333V46.1111ZM35.3333 45.2222H36.2222V46.1111H35.3333V45.2222ZM35.3333 44.3333H36.2222V45.2222H35.3333V44.3333ZM35.3333 43.4444H36.2222V44.3333H35.3333V43.4444ZM35.3333 42.5556H36.2222V43.4444H35.3333V42.5556ZM35.3333 41.6667H36.2222V42.5556H35.3333V41.6667ZM35.3333 40.7778H36.2222V41.6667H35.3333V40.7778ZM35.3333 39.8889H36.2222V40.7778H35.3333V39.8889ZM35.3333 39H36.2222V39.8889H35.3333V39ZM35.3333 38.1111H36.2222V39H35.3333V38.1111ZM35.3333 37.2222H36.2222V38.1111H35.3333V37.2222ZM35.3333 36.3333H36.2222V37.2222H35.3333V36.3333ZM34.4444 36.3333H35.3333V37.2222H34.4444V36.3333ZM34.4444 35.4444H35.3333V36.3333H34.4444V35.4444ZM35.3333 35.4444H36.2222V36.3333H35.3333V35.4444ZM33.5556 35.4444H34.4444V36.3333H33.5556V35.4444ZM33.5556 39H34.4444V39.8889H33.5556V39ZM33.5556 39.8889H34.4444V40.7778H33.5556V39.8889ZM33.5556 40.7778H34.4444V41.6667H33.5556V40.7778ZM33.5556 41.6667H34.4444V42.5556H33.5556V41.6667ZM33.5556 42.5556H34.4444V43.4444H33.5556V42.5556ZM34.4444 43.4444H35.3333V44.3333H34.4444V43.4444ZM34.4444 44.3333H35.3333V45.2222H34.4444V44.3333ZM34.4444 45.2222H35.3333V46.1111H34.4444V45.2222ZM33.5556 45.2222H34.4444V46.1111H33.5556V45.2222ZM33.5556 44.3333H34.4444V45.2222H33.5556V44.3333ZM33.5556 43.4444H34.4444V44.3333H33.5556V43.4444ZM34.4444 39.8889H35.3333V40.7778H34.4444V39.8889ZM34.4444 39H35.3333V39.8889H34.4444V39ZM34.4444 38.1111H35.3333V39H34.4444V38.1111ZM34.4444 37.2222H35.3333V38.1111H34.4444V37.2222ZM33.5556 37.2222H34.4444V38.1111H33.5556V37.2222ZM33.5556 38.1111H34.4444V39H33.5556V38.1111ZM34.4444 42.5556H35.3333V43.4444H34.4444V42.5556ZM34.4444 41.6667H35.3333V42.5556H34.4444V41.6667ZM34.4444 40.7778H35.3333V41.6667H34.4444V40.7778ZM33.5556 36.3333H34.4444V37.2222H33.5556V36.3333ZM33.5556 34.5556H34.4444V35.4444H33.5556V34.5556ZM34.4444 34.5556H35.3333V35.4444H34.4444V34.5556ZM35.3333 34.5556H36.2222V35.4444H35.3333V34.5556ZM35.3333 33.6667H36.2222V34.5556H35.3333V33.6667ZM34.4444 33.6667H35.3333V34.5556H34.4444V33.6667ZM33.5556 33.6667H34.4444V34.5556H33.5556V33.6667ZM32.6667 33.6667H33.5556V34.5556H32.6667V33.6667ZM31.7778 33.6667H32.6667V34.5556H31.7778V33.6667ZM31.7778 34.5556H32.6667V35.4444H31.7778V34.5556ZM31.7778 35.4444H32.6667V36.3333H31.7778V35.4444ZM32.6667 34.5556H33.5556V35.4444H32.6667V34.5556ZM32.6667 35.4444H33.5556V36.3333H32.6667V35.4444ZM36.2222 33.6667H37.1111V34.5556H36.2222V33.6667ZM37.1111 33.6667H38V34.5556H37.1111V33.6667ZM37.1111 34.5556H38V35.4444H37.1111V34.5556ZM37.1111 35.4444H38V36.3333H37.1111V35.4444ZM36.2222 35.4444H37.1111V36.3333H36.2222V35.4444ZM36.2222 34.5556H37.1111V35.4444H36.2222V34.5556ZM38 33.6667H38.8889V34.5556H38V33.6667ZM38 34.5556H38.8889V35.4444H38V34.5556ZM38 35.4444H38.8889V36.3333H38V35.4444ZM30.8889 33.6667H31.7778V34.5556H30.8889V33.6667ZM30.8889 34.5556H31.7778V35.4444H30.8889V34.5556ZM30.8889 35.4444H31.7778V36.3333H30.8889V35.4444ZM40.6623 33.6667H41.5512V34.5556H40.6623V33.6667ZM41.5512 33.6667H42.4401V34.5556H41.5512V33.6667ZM42.4401 33.6667H43.329V34.5556H42.4401V33.6667ZM43.329 33.6667H44.2179V34.5556H43.329V33.6667ZM44.2179 33.6667H45.1068V34.5556H44.2179V33.6667ZM45.1068 33.6667H45.9957V34.5556H45.1068V33.6667ZM45.9957 33.6667H46.8845V34.5556H45.9957V33.6667ZM46.8845 33.6667H47.7734V34.5556H46.8845V33.6667ZM46.8845 34.5556H47.7734V35.4444H46.8845V34.5556ZM47.7734 34.5556H48.6623V35.4444H47.7734V34.5556ZM45.9957 34.5556H46.8845V35.4444H45.9957V34.5556ZM45.1068 34.5556H45.9957V35.4444H45.1068V34.5556ZM44.2179 34.5556H45.1068V35.4444H44.2179V34.5556ZM43.329 34.5556H44.2179V35.4444H43.329V34.5556ZM42.4401 34.5556H43.329V35.4444H42.4401V34.5556ZM41.5512 34.5556H42.4401V35.4444H41.5512V34.5556ZM40.6623 34.5556H41.5512V35.4444H40.6623V34.5556ZM40.6623 35.4444H41.5512V36.3333H40.6623V35.4444ZM41.5512 35.4444H42.4401V36.3333H41.5512V35.4444ZM42.4401 35.4444H43.329V36.3333H42.4401V35.4444ZM43.329 35.4444H44.2179V36.3333H43.329V35.4444ZM45.1068 35.4444H45.9957V36.3333H45.1068V35.4444ZM45.9957 35.4444H46.8845V36.3333H45.9957V35.4444ZM46.8845 35.4444H47.7734V36.3333H46.8845V35.4444ZM47.7734 35.4444H48.6623V36.3333H47.7734V35.4444ZM48.6623 35.4444H49.5512V36.3333H48.6623V35.4444ZM44.2179 35.4444H45.1068V36.3333H44.2179V35.4444ZM45.9957 36.3333H46.8845V37.2222H45.9957V36.3333ZM46.8845 36.3333H47.7734V37.2222H46.8845V36.3333ZM48.6623 36.3333H49.5512V37.2222H48.6623V36.3333ZM47.7734 36.3333H48.6623V37.2222H47.7734V36.3333ZM47.7734 37.2222H48.6623V38.1111H47.7734V37.2222ZM47.7734 39H48.6623V39.8889H47.7734V39ZM48.6623 39H49.5512V39.8889H48.6623V39ZM48.6623 39.8889H49.5512V40.7778H48.6623V39.8889ZM48.6623 37.2222H49.5512V38.1111H48.6623V37.2222ZM46.8845 39H47.7734V39.8889H46.8845V39ZM46.8845 37.2222H47.7734V38.1111H46.8845V37.2222ZM45.9957 39H46.8845V39.8889H45.9957V39ZM46.8845 39.8889H47.7734V40.7778H46.8845V39.8889ZM47.7734 39.8889H48.6623V40.7778H47.7734V39.8889ZM47.7734 40.7778H48.6623V41.6667H47.7734V40.7778ZM45.9957 41.6667H46.8845V42.5556H45.9957V41.6667ZM46.8845 41.6667H47.7734V42.5556H46.8845V41.6667ZM46.8845 40.7778H47.7734V41.6667H46.8845V40.7778ZM45.9957 40.7778H46.8845V41.6667H45.9957V40.7778ZM45.9957 39.8889H46.8845V40.7778H45.9957V39.8889ZM45.1068 41.6667H45.9957V42.5556H45.1068V41.6667ZM44.2179 41.6667H45.1068V42.5556H44.2179V41.6667ZM43.329 41.6667H44.2179V42.5556H43.329V41.6667ZM43.329 40.7778H44.2179V41.6667H43.329V40.7778ZM44.2179 40.7778H45.1068V41.6667H44.2179V40.7778ZM44.2179 39.8889H45.1068V40.7778H44.2179V39.8889ZM45.1068 39.8889H45.9957V40.7778H45.1068V39.8889ZM43.329 39.8889H44.2179V40.7778H43.329V39.8889ZM45.1068 40.7778H45.9957V41.6667H45.1068V40.7778ZM41.5512 36.3333H42.4401V37.2222H41.5512V36.3333ZM42.4401 36.3333H43.329V37.2222H42.4401V36.3333ZM42.4401 37.2222H43.329V38.1111H42.4401V37.2222ZM42.4401 38.1111H43.329V39H42.4401V38.1111ZM42.4401 39H43.329V39.8889H42.4401V39ZM41.5512 39H42.4401V39.8889H41.5512V39ZM40.6623 39H41.5512V39.8889H40.6623V39ZM40.6623 38.1111H41.5512V39H40.6623V38.1111ZM40.6623 37.2222H41.5512V38.1111H40.6623V37.2222ZM40.6623 36.3333H41.5512V37.2222H40.6623V36.3333ZM41.5512 38.1111H42.4401V39H41.5512V38.1111ZM41.5512 39.8889H42.4401V40.7778H41.5512V39.8889ZM41.5512 37.2222H42.4401V38.1111H41.5512V37.2222ZM40.6623 39.8889H41.5512V40.7778H40.6623V39.8889ZM40.6623 40.7778H41.5512V41.6667H40.6623V40.7778ZM41.5512 40.7778H42.4401V41.6667H41.5512V40.7778ZM42.4401 39.8889H43.329V40.7778H42.4401V39.8889ZM42.4401 40.7778H43.329V41.6667H42.4401V40.7778ZM42.4401 41.6667H43.329V42.5556H42.4401V41.6667ZM42.4401 42.5556H43.329V43.4444H42.4401V42.5556ZM42.4401 43.4444H43.329V44.3333H42.4401V43.4444ZM42.4401 44.3333H43.329V45.2222H42.4401V44.3333ZM42.4401 46.1111H43.329V47H42.4401V46.1111ZM41.5512 46.1111H42.4401V47H41.5512V46.1111ZM40.6623 46.1111H41.5512V47H40.6623V46.1111ZM40.6623 45.2222H41.5512V46.1111H40.6623V45.2222ZM40.6623 44.3333H41.5512V45.2222H40.6623V44.3333ZM40.6623 43.4444H41.5512V44.3333H40.6623V43.4444ZM40.6623 42.5556H41.5512V43.4444H40.6623V42.5556ZM40.6623 41.6667H41.5512V42.5556H40.6623V41.6667ZM41.5512 41.6667H42.4401V42.5556H41.5512V41.6667ZM41.5512 42.5556H42.4401V43.4444H41.5512V42.5556ZM41.5512 43.4444H42.4401V44.3333H41.5512V43.4444ZM41.5512 44.3333H42.4401V45.2222H41.5512V44.3333ZM41.5512 45.2222H42.4401V46.1111H41.5512V45.2222ZM42.4401 45.2222H43.329V46.1111H42.4401V45.2222ZM48.6623 38.1111H49.5512V39H48.6623V38.1111ZM47.7734 38.1111H48.6623V39H47.7734V38.1111ZM46.8845 38.1111H47.7734V39H46.8845V38.1111Z" fill="white"/>
</svg>
