<svg width="100" height="100" viewBox="0 0 100 100" fill="none" xmlns="http://www.w3.org/2000/svg">
<g clip-path="url(#clip0_1253_244)">
<path d="M2.08333 33.3334H95.2458C95.0792 33.6459 94.9417 33.9751 94.6958 34.2501C93.8208 35.2376 92.9625 36.1792 92.3417 36.8042L82.9917 46.3167C82.1833 47.1376 82.1958 48.4584 83.0167 49.2626C83.425 49.6626 83.95 49.8626 84.4792 49.8626C85.0167 49.8626 85.5583 49.6542 85.9625 49.2417L95.3042 39.7376C95.9625 39.0792 96.8792 38.0751 97.8208 37.0167C100.733 33.7334 100.733 28.7751 97.8208 25.4959C96.8792 24.4334 95.9625 23.4292 95.3125 22.7792L85.9625 13.2667C85.1542 12.4459 83.8375 12.4375 83.0167 13.2417C82.1958 14.0459 82.1833 15.3667 82.9917 16.1875L92.3542 25.7084C92.9667 26.3251 93.825 27.2667 94.7 28.2584C94.9417 28.5334 95.0833 28.8584 95.25 29.1709H2.08333C0.933333 29.1709 0 30.1042 0 31.2542C0 32.4042 0.933333 33.3376 2.08333 33.3376V33.3334Z" fill="black"/>
<path d="M97.9169 66.6667H4.75859C4.92526 66.3542 5.06693 66.0292 5.30859 65.75C6.17943 64.7583 7.04193 63.8208 7.65859 63.1958L17.0128 53.6833C17.8211 52.8625 17.8086 51.5417 16.9878 50.7375C16.1586 49.9292 14.8461 49.9375 14.0419 50.7625L4.69609 60.2667C4.03776 60.925 3.12109 61.9333 2.18359 62.9875C-0.733073 66.2708 -0.733073 71.2292 2.18359 74.5083C3.12109 75.5667 4.04193 76.575 4.69193 77.225L14.0461 86.7375C14.4544 87.1542 14.9919 87.3583 15.5294 87.3583C16.0544 87.3583 16.5836 87.1583 16.9919 86.7583C17.8128 85.9542 17.8253 84.6333 17.0169 83.8125L7.65443 74.2917C7.04193 73.675 6.18359 72.7375 5.30859 71.7417C5.06276 71.4667 4.92526 71.1417 4.75859 70.8292H97.9169C99.0669 70.8292 100 69.8958 100 68.7458C100 67.5958 99.0669 66.6625 97.9169 66.6625V66.6667Z" fill="black"/>
</g>
<defs>
<clipPath id="clip0_1253_244">
<rect width="100" height="100" fill="white"/>
</clipPath>
</defs>
</svg>
